<svg width="38" height="30" xmlns="http://www.w3.org/2000/svg"><g style="clip-rule:evenodd;fill-rule:evenodd;stroke-linejoin:round;stroke-miterlimit:2"><path d="M43 13.029A4.03 4.03 0 0 0 38.971 9H9.029A4.03 4.03 0 0 0 5 13.029v21.942A4.03 4.03 0 0 0 9.029 39h29.942A4.03 4.03 0 0 0 43 34.971Zm-4 3.563L26.449 28.459c-1.082 1.073-2.066 1.446-2.952 1.44-.893-.005-1.873-.388-2.927-1.501L9 16.973V35h30ZM36.976 13H10.67l12.735 12.577.131.131.136-.128z" style="fill:#fff" transform="translate(-5 -9)"/></g></svg>