<svg viewBox="0 0 7000 3735" xmlns="http://www.w3.org/2000/svg" xml:space="preserve" style="fill-rule:evenodd;clip-rule:evenodd;stroke-miterlimit:22.9256"><path d="M237.468 259.088c-3.251 3.881-5.139 5.227-8.6 5.856-1.678.314-3.356.419-5.139.629-7.447.839-14.998 1.049-22.444-.315l-31.201-5.96c-3.251-.629-6.398-1.259-9.649-1.888l.315-2.604c1.223-9.841 2.167-19.787 2.062-29.751 0-5.89.315-11.764.629-17.637.105-2.412.525-4.824.525-7.236-.105-5.034-1.573-6.712-6.398-7.971-1.992-.524-1.783.629-1.992 1.678-1.364 7.971-4.195 15.417-8.478 22.234-4.195 6.73-9.334 12.603-16.676 16.169-9.211 4.405-18.86 2.937-25.38-4.09-3.898-4.195-6.205-9.352-7.569-14.911-3.566-14.368-2.412-28.526 1.993-42.597 2.535-7.657 5.995-14.788 12.201-20.347 6.083-5.453 13.004-8.705 21.272-8.285 2.92.21 5.856.734 7.849 2.832 4.195 4.195 6.187 9.543 5.453 15.417-.839 6.293-3.985 11.659-8.18 16.273-3.985 4.3-8.6 7.342-14.578 7.656-6.503.525-11.432-2.726-11.222-10.487 0-1.154-.21-2.22-.419-3.269-.105-.105-.315-.105-.525-.105-.524.944-1.363 1.905-1.573 2.954-.734 4.51.419 8.6 3.881 11.851 3.985 3.671 8.914 4.195 14.053 3.461 11.851-1.573 19.717-8.285 24.734-18.895 5.034-10.593 1.468-26.22-13.722-31.219-5.453-1.87-11.012-1.451-16.466-.314-12.585 2.482-21.605 10.033-28.212 20.625-6.292 10.069-9.439 21.203-9.963 33.054-.524 9.125.734 18.04 4.3 26.535 9.963 23.597 36.183 25.38 51.075 13.337 5.681-4.615 9.667-10.296 12.9-16.694.315-.419.525-.734.944-1.573-1.154 14.386-2.202 28.318-3.338 42.354-.944 0-1.678.104-2.517.209-5.454.525-11.013.839-16.466 1.574-6.066.839-11.414 3.146-15.714 7.725-5.891 6.293-4.615 15.155 2.936 19.141 8.181 4.282 16.553 3.653 24.629-.525 6.607-3.461 10.785-9.159 13.617-15.889.734-1.678 1.468-3.443 2.307-5.121.734.21 1.258.314 1.783.419 10.907 2.5 21.814 5.122 32.722 7.534 11.746 2.412 23.702 3.356 35.658 1.783 3.671-.525 7.132-1.573 9.964-3.985 1.783-1.469 2.622-3.462 2.202-5.856-.437-1.993-1.8-3.041-3.583-3.776Zm-89.339 2.325c-1.678 6.153-3.775 12.026-8.687 16.256-5.139 4.44-10.908 5.069-17.078 2.43-5.139-2.115-6.188-7.499-2.412-11.694 3.251-3.548 7.429-5.436 12.044-5.961 5.138-.629 10.382-.821 15.504-1.241.105 0 .315.105.629.21Z" style="fill:#fff;fill-rule:nonzero" transform="matrix(11.65989 0 0 11.65989 -978.674 -573.091)"/><path d="M187.248 194.081c0-2.516-2.097-4.509-4.509-4.509a4.477 4.477 0 0 0-4.51 4.509c0 2.413 1.993 4.51 4.51 4.51 2.412 0 4.509-2.097 4.509-4.51Zm14.998 0a4.477 4.477 0 0 0-4.51-4.509c-2.412 0-4.509 1.993-4.509 4.509 0 2.413 2.097 4.51 4.509 4.51 2.517 0 4.51-2.097 4.51-4.51Zm-8.809 17.096a65.853 65.853 0 0 1 1.468-4.196l.629-1.258c.524-.839 1.258-1.363 2.412-1.154.629.105 1.259.105 1.783.21 2.622.734 4.195 2.622 4.09 5.349 0 1.783-.21 3.461-.314 5.244-.315 6.083-.735 12.061-1.049 18.144-.105 2.831 0 5.558.209 8.39 0 1.049.42 1.993.735 2.936.419.944 1.363 1.154 2.097.315.839-1.049 1.783-2.202 2.308-3.461 1.573-4.3 3.041-8.705 4.509-13.005.944-2.517 1.679-5.034 2.518-7.656.839.315 1.678.525 2.516.734-.524 2.203-.943 4.3-1.573 6.293-.943 3.566-1.887 7.237-3.146 10.697-.839 2.622-2.202 5.035-3.985 7.027-1.678 1.888-3.671 2.517-6.188 1.888-4.3-1.049-7.132-3.775-8.495-7.971-.734-2.622-1.259-5.348-1.888-8.075-.105-.315-.105-.63-.21-1.154-.524 2.098-1.049 4.09-1.678 5.978-.944 2.412-1.783 4.825-3.041 7.027-2.203 3.985-4.091 5.139-9.334 3.985-7.132-1.573-12.481-7.97-12.901-15.312-.524-7.027 1.049-13.529 5.035-19.402 2.517-3.776 5.978-6.293 10.592-6.817 3.461-.42 7.027-.315 9.964 2.097 1.153.944 1.993 2.203 2.937 3.147Zm-17.305 19.612c.209 1.888.419 3.775.734 5.558.419 2.307 1.049 4.405 2.307 6.398.839 1.258 1.049 1.258 2.097.21 1.783-1.783 2.937-3.881 3.881-6.084 2.937-6.921 4.51-14.263 5.873-21.604.21-1.468-.21-2.832-1.049-3.986-.629-1.048-1.678-1.468-2.936-1.258-1.783.21-3.146 1.258-4.3 2.622-4.195 5.349-6.398 11.327-6.607 18.144Z" style="fill:#fff;fill-rule:nonzero" transform="matrix(11.65989 0 0 11.65989 -978.674 -573.091)"/><path d="M226.263 222.189h-.104c0-.525-.105-1.049-.21-1.573-.21-1.888-.42-3.776-.839-5.664-.525-2.412-1.993-4.09-4.405-4.719a10.332 10.332 0 0 0-2.517-.315c-2.203 0-3.356 1.049-3.776 3.146-.105.315-.105.63-.21.944-.105 2.517-.314 4.93-.524 7.447-.42 5.348-.525 10.697-.21 16.046.105 2.307.525 4.615 1.468 6.817 1.469 3.146 3.776 4.72 7.027 4.51 1.049-.105 1.993-.42 2.622-1.259.525-.629.944-1.363 1.154-2.097.944-2.622 1.678-5.139 2.517-7.761a719.244 719.244 0 0 1 6.293-19.822c1.258-4.09 3.146-7.761 5.768-11.117.21-.105.315-.315.419-.42.525 1.154.84 2.203.63 3.356l-.944 4.405c-1.259 6.188-2.517 12.481-3.671 18.668-.944 5.349-1.468 10.698-1.259 16.152.105 2.831.315 5.768 1.049 8.495.734 3.356 2.517 5.873 5.454 7.551 2.412 1.363 4.929 1.049 6.922-.734.21-.21.315-.315.21-.629-1.154-2.832-1.678-5.769-1.888-8.81-.21-3.776-.21-7.551.42-11.222.314-1.783.734-3.461 1.048-5.244.525-2.307.839-4.72 1.363-7.027 1.049-4.824 2.413-9.544 3.042-14.473.42-2.727.629-5.559.21-8.39-.525-3.251-2.098-5.734-5.034-7.412-4.195-2.394-7.971-1.975-11.537 1.259-1.468 1.241-2.622 2.692-3.356 4.475-1.678 3.356-3.251 6.922-4.825 10.383-.839 1.678-1.572 3.356-2.307 5.034Z" style="fill:#fff;fill-rule:nonzero" transform="matrix(11.65989 0 0 11.65989 -978.674 -573.091)"/><path d="M278.09 232.886c-.734-1.223-1.363-2.464-1.992-3.723-3.881-7.149-8.408-13.774-13.547-20.066-.315-.315-.525-.735-.525-1.154.21-2.22.63-4.318.735-6.52.209-2.325.209-4.737-.63-7.045-1.136-3.058-4.177-3.897-6.677-2.01-1.451 1.067-2.29 2.43-2.709 4.108-.944 3.059-.734 6.101-.105 9.142.839 4.038 2.29 7.814 4.055 11.484.21.21.315.629.21.944-.42 2.098-.839 4.195-1.346 6.188-.315 1.468-.734 2.832-1.049 4.3.734.21 1.346.524 2.08.734.822-2.517 1.661-4.824 2.5-7.237 0 .105.105.105.105.21 2.727 5.559 5.454 11.065 8.075 16.623.105.105 0 .525-.104.734-1.049 1.364-2.098 2.727-3.042 4.091-2.936 4.405-5.453 9.019-5.978 14.368-.734 6.293 1.468 11.537 6.607 15.207 2.727 1.993 5.786 2.832 9.142 2.307 4.09-.734 6.608-3.46 8.181-7.131 2.517-5.978 2.517-12.166 1.468-18.459-.839-4.824-1.888-9.439-3.985-13.948 4.929-2.203 10.068-2.832 15.522-2.517.105-.927.105-1.853.209-2.78-5.978-.944-11.641 0-17.2 2.15Zm-18.982-28.002c-1.888-2.098-2.203-4.615-1.679-7.254.105-.525.298-1.049.402-1.573.105-.21.315-.525.42-.525.21.105.42.21.524.315.21.629.525 1.258.63 1.888 0 2.324-.105 4.632-.21 6.939.017 0-.087.105-.087.21Zm9.316 38.7 1.591 4.929c1.049 3.566 1.888 7.132 1.993 10.803.104 1.573 0 3.146-.42 4.614-.524 2.412-2.849 3.881-5.052 3.566-1.573-.315-2.622-1.363-3.356-2.727-1.049-1.888-1.363-3.88-1.154-5.978.315-5.663 2.518-10.697 6.189-14.997 0-.105.104-.105.209-.21Z" style="fill:#fff;fill-rule:nonzero" transform="matrix(11.65989 0 0 11.65989 -978.674 -573.091)"/><path d="M323.59 217.277c-.105.315-.105.42-.105.524-.839 2.535-1.468 5.157-2.307 7.639-1.049 2.937-2.098 5.978-3.252 8.81-.629 1.468-1.468 2.831-2.307 4.09-1.992 2.727-4.51 4.72-7.866 5.559-.839.209-1.887.419-2.726.209-3.147-.839-5.139-3.041-6.083-6.083-1.049-3.356-1.154-7.027-.839-10.592.105-1.154.419-2.308.524-3.339 1.363.297 2.622.612 3.88.822 4.091.524 7.342-.927 9.754-4.161 1.678-2.202 2.622-4.632 2.622-7.481.105-2.727-1.154-5.139-3.566-6.398-1.573-.838-3.251-1.153-5.034-1.258-4.3-.419-8.075.525-11.432 3.356-2.307 1.888-3.88 4.3-5.243 6.94-1.784 3.688-2.727 7.551-3.147 11.624-.209 3.46 0 6.817 1.363 9.963 2.727 5.978 7.237 9.649 13.844 10.383 2.098.21 4.196 0 6.293-.525 3.566-.839 6.503-2.622 8.705-5.558 1.363-1.783 2.622-3.566 3.671-5.559 2.832-5.453 4.09-11.431 5.244-17.374.105-.105 0-.315-.105-.315a14.764 14.764 0 0 0-1.888-1.276Zm-24.122 4.108c.42-.944.734-1.888 1.154-2.727 1.048-2.325 2.307-4.423 3.88-6.328.839-1.049 1.993-1.573 3.251-1.888 1.154-.104 2.203.42 2.832 1.574.629 1.258.734 2.639.21 4.002-.629 2.115-1.783 3.898-3.566 5.262-2.098 1.573-4.3 1.468-6.712.646l-.734-.332c-.105 0-.105-.104-.315-.209Z" style="fill:#fff;fill-rule:nonzero" transform="matrix(11.65989 0 0 11.65989 -978.674 -573.091)"/><path d="M366.275 218.938c1.574-.105 3.042-.315 4.51-.42 1.469-.105 3.042-.105 4.51.42.21.104.734 0 .734-.21.42-.839.839-1.678 1.049-2.622.315-1.678-.42-2.622-2.203-2.832-1.888-.314-3.67.21-5.558.734-1.049.21-1.993.525-3.146.839v-.419c-.315-2.832-.945-5.454-2.203-7.971-.944-1.888-1.993-3.776-3.775-4.929-3.461-2.325-7.22-2.64-10.995-.839-6.206 2.936-10.488 7.761-13.127 14.158-.542 1.259-.857 2.622-1.276 3.986l-.21.524c0-4.615.21-9.229.21-13.844 0-1.049.419-1.888.944-2.727.646-.839 1.275-1.678 1.8-2.517 4.51-7.044 8.513-14.385 11.239-22.251 2.325-6.922 3.566-14.054 2.535-21.395-.42-3.252-1.381-6.293-3.164-9.125-.21-.314-.315-.629-.629-.839-1.573-.944-3.164-1.258-4.947-.524-1.556.734-2.814 1.678-4.073 2.936-3.6 3.461-6.013 7.761-7.901 12.271-2.744 6.398-4.107 13.11-5.366 19.822-1.468 7.236-2.202 14.473-2.832 21.832-.524 7.656-.419 15.207-.104 22.863.104 3.881.419 7.866.734 11.747.21 2.831.944 5.454 2.727 7.761.943 1.363 2.202 2.412 3.898 2.412 1.992 0 3.985-.42 5.768-1.364.315-.104.647-.524.856-.943.63-1.259.63-2.727.525-4.195a68.604 68.604 0 0 1-.315-14.683c.524-5.873 2.744-11.013 6.607-15.522 1.259-1.469 2.64-2.832 4.423-3.566 2.097-.734 4.108-.315 5.349 1.363.629.839 1.153 1.678 1.468 2.622 1.031 2.727.821 5.664.612 8.495 0 .21-.297.42-.507.63l-4.405 2.726c-3.146 2.308-6.206 4.825-8.303 8.181-1.87 3.146-2.29 6.502-.717 9.963.822 1.783 1.975 3.251 3.444 4.615 2.01 1.888 4.422 2.412 7.062 1.678 2.08-.629 3.845-1.888 5.313-3.566 2.832-3.146 4.72-6.817 6.398-10.697 1.992-4.615 2.832-9.44 3.041-14.578Zm-30.851-27.076c1.276-10.069 3.496-19.718 7.254-28.947a63.791 63.791 0 0 1 2.412-4.614c.315-.525.857-1.259 1.486-.944.419.105.734.944.839 1.468.419 2.727.105 5.454-.524 8.076-1.696 7.865-4.633 15.312-9.037 22.024-.63.944-1.259 1.678-2.011 2.517l-.419.42Zm19.228 31.795c-.735 2.307-1.154 4.51-2.098 6.607-1.031 2.622-2.412 5.139-3.776 7.551-.944 1.574-2.517 2.413-4.317 2.727-1.259.315-2.098-.734-2.098-2.307.105-1.573.734-3.041 1.468-4.405 2.43-4.405 5.996-7.656 10.296-10.173h.525ZM434.009 187.159v-.314c-.105-.105-.21-.21-.315-.21-.734 0-1.678 4.93-3.88 5.454-.839.419-1.573.629-2.517.629-4.405 0-9.666-4.929-13.652-4.929-.839 0-1.573.21-2.202.629-3.042 1.888-5.244 7.132-5.244 9.124 0 .525.105.84.419.84h.105c1.573-1.049.42-4.51 4.09-5.454.525-.105 1.049-.21 1.573-.21 4.72 0 9.23 4.824 13.337 4.824.735 0 1.574-.209 2.308-.629h-.105c3.356-1.888 6.083-7.761 6.083-9.754Zm15.207 33.771c.839.315 1.573.525 2.412.734l-.943 4.3c-1.259 4.405-2.413 8.705-3.881 13.005-.839 2.622-2.202 5.244-4.3 7.237-1.468 1.468-3.251 1.992-5.244 1.468-4.719-.944-7.761-3.88-9.124-8.39-.839-2.832-1.364-5.768-2.098-8.495 0 0-.105.105-.105.314-1.048 4.091-2.202 8.076-4.212 11.852a24.5 24.5 0 0 1-1.783 2.726c-1.259 1.678-3.042 2.308-5.034 2.203-7.866-.315-14.578-6.607-15.627-14.368-.944-7.132 0-14.054 1.888-20.871.734-2.832 1.678-5.454 2.517-8.285l.419-.735c1.364.525 2.727 1.154 4.09 1.783.63.315 1.259.735 1.783 1.259 1.049.839 1.364 1.992 1.259 3.356-.315 5.453-.734 10.907-.839 16.361-.105 4.09.21 8.18 1.154 12.166.419 1.678 1.048 3.251 2.202 4.614.629.63.734.63 1.468 0 2.098-1.992 3.356-4.405 4.405-7.026 2.307-5.454 3.688-11.327 4.947-17.096.734-3.356 1.678-6.712 2.622-10.068.419-1.363 1.154-2.412 2.097-3.356 1.154-.944 2.308-1.468 3.881-1.154 3.776.839 5.244 3.042 5.034 6.817-.524 7.447-1.049 14.788-1.468 22.235-.105 2.936.105 5.873.21 8.704.105.84.314 1.679.629 2.412.524 1.154 1.363 1.364 2.307.42.629-.734 1.259-1.468 1.573-2.307 1.154-2.727 2.413-5.454 3.356-8.181 1.469-4.195 2.727-8.495 4.091-12.69.104-.314.209-.524.314-.944Z" style="fill:#fff;fill-rule:nonzero" transform="matrix(11.65989 0 0 11.65989 -978.674 -573.091)"/><circle cx="380.13" cy="331.908" r="5.411" style="fill:#fff" transform="scale(11.65987 -11.65987) rotate(-6.324 -3065.327 903.558)"/><path d="M2315.2-597.352c2.44-2.915 5.42-4.673 9.03-5.045 11.2-1.157 17 12.248 19.42 32.855 3.09-11.591 7.17-20.455 12.51-25.043 3.33-3.818 7.19-5.841 11.68-5.613 19.56.991 16.23 43.015 6.46 89.47 8.59-31.35 19.14-59.103 31.27-70.153 5.22-5.686 10.75-8.323 16.55-6.813 10.98 2.858 11.65 17.641 6.58 38.038 3.51-4.992 7.03-9.234 10.5-12.521 7.71-8.115 15.26-11.778 22.24-8.786 10.49 4.493 8.87 19.356.68 38.922a127.35 127.35 0 0 1 3.11-3.144c12.34-12.661 23.65-18.824 32.23-13.52 16.36 10.104-5.66 44.22-35.74 79.529 2.54-2.63 5.06-5.203 7.59-7.708 28.27-28.458 55.4-48.31 68.11-36.517 8.04 7.456 2.33 20.158-10.8 35.037 16.68-8.581 30.13-11.096 36.7-2.942 5.94 7.373 1.17 17.144-10 27.944-1.76 1.823-3.71 3.68-5.84 5.557 17.85-6.125 31.6-6.695 36.94 2.363 3.75 6.376.82 13.248-6.65 20.263-9.18 9.827-27.78 20.021-49.89 29.624 37.53-11.542 69.86-16.009 75.5.101 1.87 5.36-.17 10.24-5.15 14.672-4.11 4.674-11.44 8.878-20.97 12.651 19.05.279 32.32 4.416 34.26 14.813.87 4.653-.9 8.565-4.76 11.841-4.25 5.104-13.06 8.846-24.77 11.541 18.54 3.206 30.83 9.308 31.16 19.797.12 3.959-1.5 7.122-4.56 9.601-4.31 5.428-14.11 8.274-27.25 9.301 17.28 5.964 28.08 13.774 26.82 24.004-.4 3.261-1.9 5.798-4.35 7.7-4.44 5.821-15.03 7.531-29.22 6.508 15.71 8.428 24.84 17.662 22.08 27.427-.72 2.558-2.09 4.537-4.02 5.997-4.62 6.151-15.41 6.665-29.71 3.557 13.33 10.328 20.32 20.434 16.26 29.356-.85 1.869-2.03 3.339-3.5 4.442-4.84 6.443-15.34 5.927-28.99 1.006 10.43 11.411 15.04 21.713 9.99 29.51-.79 1.22-1.71 2.218-2.75 3.005-5.41 7.059-16.06 5.318-29.5-1.835 8.26 12.471 11.07 23.039 5.07 29.878-.54.614-1.11 1.153-1.7 1.615-.15.183-.3.361-.45.537-6.3 7.177-16.86 4.041-29.56-5.29 6.15 13.29 7.28 23.948.44 29.768-.12.103-.24.204-.36.3-.52.664-1.12 1.282-1.79 1.853-11.43 9.73-29.6-7.291-48.61-34 12.23 27.006 17.62 49.585 7.13 57.768a12.57 12.57 0 0 1-3.8 3.243c-8.68 4.865-17.99-2.365-27.22-16.494 1.37 13.042-.21 22.927-6.11 27.558a12.621 12.621 0 0 1-5.49 4.029c-9.49 3.601-17.77-5.332-24.9-21.225-.48 12.213-3.02 21.414-8.48 25.794-1.96 2.401-4.41 3.997-7.41 4.65-10.4 2.259-17.45-8.931-22.15-27.227-2.04 11.773-5.46 20.682-10.77 25.09-2.64 3.137-5.85 4.962-9.69 5.198-5.14.313-9.02-2.362-11.88-7.335-.28.276-.57.538-.86.788-3.08 3.571-6.71 5.523-10.98 5.468-11.86-.153-15.9-15.637-15.47-38.21-4.11 11.091-8.82 19.72-14.22 24.516-4.26 4.745-8.97 7.055-14.17 6.183-43.57-7.295 52.46-208.383 52.46-208.383s-.04.94-.12 2.691c1.45-3.126 2.27-4.843 2.27-4.843s-.88 21.475-3.46 50.645c6.95-27.139 12.8-46.563 12.8-46.563s.15 1.336.41 3.798c1.11-3.824 1.74-5.949 1.74-5.949s.87 7.712 1.97 20.207c2.24-11.122 3.74-17.877 3.74-17.877s.28 1.505.77 4.262c.87-4.119 1.38-6.414 1.38-6.414s2.77 14.754 6.05 36.533c.7-21.23 1.64-35.564 1.64-35.564s.63 1.785 1.73 5.029c.25-4.598.42-7.182.42-7.182s4.58 13.002 10.73 32.585c-2.27-19.799-3.38-33.041-3.38-33.041s1.03 1.947 2.85 5.465c-.47-4.867-.7-7.617-.7-7.617s6.17 11.634 14.84 29.388c-5.01-18.713-7.96-31.226-7.96-31.226s1.46 1.983 4.03 5.553c-1.22-4.916-1.88-7.705-1.88-7.705s13.08 17.717 29.62 42.542c-13.45-26.496-22.48-46.427-22.48-46.427s2.01 1.837 5.53 5.139c-2.18-4.644-3.38-7.291-3.38-7.291s9.03 8.262 22.34 21.237c-10.51-15.355-17.14-25.672-17.14-25.672s2.36 1.595 6.48 4.47a827.035 827.035 0 0 1-4.33-6.622s10.19 6.9 25.3 17.86c-12.88-13.91-21.11-23.35-21.11-23.35s2.62 1.26 7.2 3.549a688.973 688.973 0 0 1-5.04-5.702s11.31 5.458 28.13 14.259c-15.24-12.231-25.12-20.667-25.12-20.667s2.76.861 7.62 2.449c-3.52-2.933-5.47-4.602-5.47-4.602s12.82 3.999 31.77 10.623c-18.09-10.431-30.05-17.852-30.05-17.852s2.78.423 7.69 1.237c-3.56-2.16-5.54-3.389-5.54-3.389s14.06 2.138 34.76 6.035c-20.63-7.949-34.51-13.845-34.51-13.845s2.67-.007 7.41.041c-3.39-1.399-5.25-2.193-5.25-2.193s14.84-.04 36.66.693c-22.56-4.883-37.96-8.787-37.96-8.787s2.43-.382 6.77-1.011c-2.99-.727-4.62-1.141-4.62-1.141s15.48-2.436 38.11-5.131c-24.19-1.414-40.98-3.013-40.98-3.013s2.09-.666 5.84-1.82c-2.39-.209-3.69-.332-3.69-.332s15.64-4.997 38.44-11.324c-25.14 2.394-42.9 3.407-42.9 3.407s1.68-.834 4.73-2.311c-1.68.107-2.57.158-2.57.158s29.09-14.465 65.56-29.732c-38.96 12.705-72.13 21.272-72.13 21.272s1.12-.859 3.18-2.419l-1.02.267s14.29-11.025 35.14-25.777c-24.65 11.588-42.69 19.191-42.69 19.191s3.74-3.87 10.13-10.25c5.73-5.746 14.23-14.142 24.44-23.848-23.61 15.646-41.23 26.284-41.23 26.284s25.67-35.709 56.81-72.117c-8.18 8.639-16.3 16.919-23.86 24.463-23.26 23.326-41.84 40.219-41.84 40.219s8.56-18.741 21.5-43.948c-16.17 21.528-28.36 36.462-28.36 36.462s.08-.273.23-.801a324.885 324.885 0 0 1-2.38 2.954s5.46-18.971 14.19-44.954c-12.4 22.965-21.84 38.917-21.84 38.917l.26-1.997c-1.55 2.682-2.42 4.149-2.42 4.149s5.33-40.774 14.89-85.787c-11.57 43.621-24.47 81.242-24.47 81.242s-.09-1.242-.24-3.538c-1.22 3.663-1.91 5.69-1.91 5.69s-1.33-17.987-2.16-43.501c-3.41 24.178-6.41 40.951-6.41 40.951s-.37-1.593-1.01-4.502c-.71 4.269-1.14 6.654-1.14 6.654s-3.86-16.683-8.43-40.746c.28 23.597-.1 39.924-.1 39.924s-.74-1.844-2.04-5.186c-.06 4.698-.12 7.338-.12 7.338s-10.97-27.426-22.63-62.542c8.29 35.489 13.33 63.941 13.33 63.941s-1.3-1.986-3.58-5.562c.94 4.924 1.43 7.714 1.43 7.714s-8.12-12.409-19.39-31.072c7.41 20.013 11.98 33.719 11.98 33.719s-1.73-1.943-4.75-5.434a603.45 603.45 0 0 1 2.59 7.586s-16.78-18.899-37.4-44.765c17.61 27.863 29.99 49.747 29.99 49.747s-2.23-1.7-6.14-4.762c2.57 4.404 3.99 6.914 3.99 6.914s-11.29-8.611-27.56-21.949c13.49 16.267 22.24 27.549 22.24 27.549s-2.52-1.401-6.95-3.934a825.64 825.64 0 0 1 4.8 6.086s-23.73-13.173-53.2-31.764c27.81 21.666 48.62 39.714 48.62 39.714s-2.76-.884-7.61-2.509c3.51 2.969 5.46 4.661 5.46 4.661s-27.85-8.919-62.1-22.188c33.45 16.559 59.44 31.283 59.44 31.283s-2.77-.309-7.67-.92a576.11 576.11 0 0 1 5.51 3.072s-16.65-1.858-40.44-5.467c23.65 7.953 40.02 14.154 40.02 14.154s-2.61.111-7.27.25c3.3 1.212 5.12 1.901 5.12 1.901s-37.83 1.607-81.53.238c44.46 3.924 83.05 10.069 83.05 10.069s-2.24.562-6.26 1.522c2.66.4 4.1.63 4.1.63s-18.19 4.576-43.99 9.905c27.6-.998 47.5-.901 47.5-.901s-1.84.78-5.19 2.152c1.97-.004 3.04.001 3.04.001s-38.86 16.405-83.26 31.037c46.12-12.847 89.16-21.305 89.16-21.305s-1.29.874-3.64 2.449c.97-.196 1.48-.297 1.48-.297s-35.82 24.426-77.17 47.841c43.43-21.962 85.18-39.058 85.18-39.058s-1.14 1.159-3.25 3.256c-3.85 3.871-17.55 17.512-35.82 34.387 25.98-17.006 45.96-28.807 45.96-28.807s-31.91 43.507-67.84 83.22c-7.36 8.145-14.9 16.13-22.36 23.547-29.7 29.88-58.62 51.423-71.69 39.061-8.38-7.928-1.49-21.516 13.28-37.273-17.93 9.436-32.42 12.477-39.23 3.851-5.76-7.29-1.18-16.781 9.62-27.22 11.09-11.511 30.32-24.319 52-36.691-40.46 20.178-78.44 33.073-87.12 16.155-3.1-6.049-.54-12.184 5.99-18.232 10.85-11.821 37.58-23.404 67.86-33.487-44.16 12.037-84.71 17.466-89.93-1.021-1.42-5.067.48-9.514 4.96-13.42 4.54-5.288 13.58-9.65 25.44-13.247-20.26-1.25-34.26-6.182-35.59-17.105-.54-4.366 1.16-7.949 4.67-10.866 9.29-11.398 42.2-14.139 79.42-13.159-44.27-4.283-82.32-13.385-80.78-32.09.29-3.441 1.82-6.131 4.42-8.168 4.65-6.04 16.03-7.954 31.21-7.169-17.28-8.035-27.69-17.226-25.22-27.507.66-2.739 2.06-4.857 4.12-6.424 8.12-10.787 35.92-4.972 68.4 7.021-33.15-17.363-57.41-35.894-50.47-50.838.85-1.834 2.02-3.278 3.47-4.366 8.49-11.292 34.13-1.126 63.75 16.754-27.27-22.533-45.53-44.195-36.18-56.976.71-.977 1.51-1.794 2.38-2.458 5.89-7.59 17.11-4.94 31.02 3.786-8-13.346-10.5-24.427-3.96-31.079.39-.4.79-.764 1.21-1.093.29-.363.6-.717.94-1.058 10.87-11.074 31.47 5.695 53.62 32.101-16.14-27.761-24.51-51.611-13.15-60.522a12.72 12.72 0 0 1 2.84-2.654c8.37-5.747 18.54 1.004 29.25 14.806-2.91-13.966-2.15-24.662 4.25-29.653a12.56 12.56 0 0 1 4.42-3.562c15.17-7.421 30.22 20.081 43.02 56.875-6.62-31.918-8.09-58.95 2.65-67.506 1.8-2.227 4.06-3.758 6.85-4.486 10.68-2.795 18.36 9.035 23.87 28.352 1.5-13.193 4.75-23.174 10.46-27.871Zm-14.07 339.645c1.57-2.106 2.43-3.246 2.43-3.246s-12.98 52.378-31.11 102.772c-12.87 35.775-28.34 70.549-43.6 84.872-6.97 7.384-13.91 10.713-20.58 8.145-41.23-15.876 93.14-193.637 93.14-193.637s-.1.376-.28 1.094Zm-59.57 38.948c27.48-27.536 51.15-48.626 51.15-48.626s-22.92 48.852-50.5 94.755c-15.42 25.669-32.31 50.416-47.46 65.182-12.79 13.104-24.47 19.544-33.2 14.033-23.63-14.923 34.28-79.743 80.01-125.344Z" style="fill:#fff;stroke:#fff;stroke-width:2.83px" transform="matrix(1.53577 0 0 1.53577 -127.808 1007.886)"/><path d="M3282.2 930.318c2.94-11.326 5.21-22.651 7.47-33.976 0-3.185.8-7.168 0-10.352-6.37-20.701-10.35-42.997-10.35-65.291 0-20.704 1.59-42.204 3.19-63.701 3.44-36.629 6.63-72.46 14.59-107.494 6.37-27.87 9.56-55.738 4.78-83.608-6.37-38.219-28.66-62.108-78.03-57.33-21.5 2.388-37.56 15.129-49.5 32.646-9.56 14.332-18.32 29.462-27.07 44.591l-11.95 22.294c-1.59-2.389-.8-3.982-1.59-6.37 0-11.942-.8-23.887-2.39-35.831-1.59-15.13-6.37-28.664-16.72-39.812-17.52-19.111-53.35-24.685-78.83-12.74-15.93 7.962-27.87 20.703-36.63 35.83a4133.196 4133.196 0 0 0-44.59 82.015c-2.39 3.981-3.98 7.167-6.37 12.741-.79-3.982-1.59-5.574-1.59-7.963-2.39-14.333-3.98-29.462-7.17-43.793-11.15-43-42.2-56.534-82.01-46.981v8.759c-3.98 49.368-6.37 98.737-11.15 148.104-2.39 35.035-.8 69.273 7.17 102.717 5.57 22.293 19.11 38.22 39.81 48.571 14.33 6.37 25.48 3.186 33.44-11.148 3.19-3.981 4.78-9.555 6.37-14.333 19.91-63.699 40.61-127.399 60.52-190.303 8.76-27.074 19.11-52.553 36.62-74.849 4.78-5.574 9.56-7.167 14.34-5.574 5.57 2.389 7.96 7.963 7.16 15.13-.79 4.777-1.59 9.555-3.18 15.129-11.15 51.756-17.52 103.513-15.93 156.862.8 32.645 4.78 65.292 15.93 96.345.8 2.39 1.59 5.575 3.18 6.371 6.38 3.185 11.95 6.37 18.32 8.759 7.96 2.389 16.72 0 21.5-7.166 4.77-6.371 8.76-13.537 11.14-20.704 14.34-43.793 27.08-87.587 41.41-130.585 9.55-31.055 19.91-62.108 31.05-92.366 5.58-15.923 15.13-30.257 26.41-42.997 3.19-3.982 7.17-7.166 12.74-4.778 5.58 2.389 7.17 7.166 7.17 13.537v2.388l-4.78 25.48c-8.23 39.018-16.99 77.237-22.56 116.253-7.96 54.145-3.98 107.496 10.35 160.049 4.69 15.788 11.68 30.204 21.07 42.883-57.36-11.801-116.21-20.356-173.82-24.57-134.7-8.095-263.69 18.313-388.7 66.089-87.72 34.24-155.4 90.774-196.01 175.974-41.28 85.33-41.28 175.17-16.73 265.15 20.71 78.03 60.52 145.98 109.89 209.68 23.89 31.06 49.37 60.52 82.81 81.22 63.83 39.95 131.51 69.41 206.36 76.57 37.42 3.98 76.57 5.58 113.2-.79 46.18-7.97 88.39-30.26 125.02-60.65 48.57-39.81 76.43-89.18 74.84-152.88 0-11.15 3.98-16.06 12.74-20.84 42.2-22.29 82.81-46.31 97.14-90.9 27.88 0 53.35.79 78.84-.8 54.94-1.59 108.15-13.54 154.33-46.18 54.55-38.22 72.07-103.52 45.92-164.69-11.81-28.67-33.97-44.59-65.02-47.78-62.77-6.37-98.61 36.63-86.66 94.75 3.18 17.39 14.33 27.74 28.66 28.54 18.18 1.59 35.7-8.76 42.07-24.55 5.57-15.93-3.19-35.84-17.52-37.43-3.18-.79-6.37-3.98-10.35-5.57 3.19-3.98 4.78-9.56 8.76-11.15 15.92-6.37 30.26-.8 41.41 10.35 36.49 38.22 26.27 91.44-11.15 118.51-46.98 33.44-100.2 42.2-156.73 36.63-11.15-.8-23.09-3.19-31.85-4.78-1.59-21.5 0-40.61-3.98-58.92-4.12-23.09-19.38-34.24-38.49-32.65-22.96 2.39-47.51 21.5-46.71 41.41.79 19.9 5.57 39.01 11.14 58.12 10.22 32.65 5.58 48.58-21.49 69.28-27.08 20.7-39.02 19.11-51.76-12.74-15.13-37.43-40.61-67.55-69.27-95.29-78.83-76.44-195.22-82.81-275.64-14.33-33.44 28.53-39.81 65.82-18.32 104.84 11.95 19.91 27.08 37.42 46.98 49.5 61.31 39.02 125.94 67.02 200.79 61.45 10.35-.8 20.7 0 31.06.79 10.35.8 15.13 5.57 13.53 17.52-3.98 35.03-19.11 63.7-49.36 82.81-74.06 46.98-153.81 54.28-234.24 23.89-138.68-52.56-223.88-155.41-263.69-296.34-10.35-35.7-19.91-72.99-11.94-110.55 7.16-32.65 15.13-66.22 25.48-98.07 16.72-48.71 46.98-86.93 91.57-114 39.94-23.89 82.14-43 126.73-54.94 88.39-23.887 178.5-29.461 269.27-30.257 79.63-.797 157.66 9.555 235.43 25.477 67.81 13.54 134.83 28.67 202.38 39.82 98.34 17.51 196.41 32.64 295.27 46.97 69.41 10.36 138.82 17.52 209.02 14.34 84.41-3.19 164.03-23.89 237.69-67.68 82.17-47.594 137.34-113.531 144.03-211.666 11.17 23.261 28.55 34.872 52.9 33.3 7.97-.796 15.13-3.184 19.91-9.555 3.98-4.778 7.17-10.351 8.76-15.926 7.17-19.905 12.74-39.016 19.11-58.923a5448.516 5448.516 0 0 1 47.78-150.491c9.55-31.053 23.88-58.923 43.79-84.402 1.59-.796 2.39-2.389 3.18-3.185 3.99 8.757 6.37 16.72 4.78 25.479l-7.16 33.444c-9.56 46.979-19.12 94.754-27.87 141.732-7.17 40.608-11.15 81.219-9.56 122.624.8 21.499 2.39 43.793 7.96 64.496 5.58 25.48 19.11 44.59 41.41 57.331 18.31 10.352 37.42 7.963 52.55-5.574 1.6-1.593 2.39-2.389 1.6-4.778-8.76-21.499-12.75-43.793-14.34-66.885-1.59-28.665-1.59-57.331 3.19-85.199 2.39-13.536 5.57-26.277 7.96-39.814 3.98-17.516 6.37-35.83 10.35-53.349 7.96-36.627 18.31-72.457 23.09-109.882 3.19-20.702 4.78-42.202 1.59-63.701-3.98-24.683-15.92-43.529-38.22-56.268-31.85-18.181-60.51-14.996-87.58 9.554-11.15 9.424-19.91 20.439-25.48 33.975-12.74 25.479-24.69 52.553-36.63 78.828-6.37 12.741-11.94 25.481-17.52 38.219h-.79c0-3.979-.8-7.96-1.6-11.942-1.59-14.333-3.18-28.665-6.37-42.999-3.98-18.312-15.13-31.053-33.44-35.83-6.37-1.593-12.74-2.39-19.11-2.39-16.72 0-25.48 7.964-28.67 23.889-.79 2.389-.79 4.778-1.59 7.166-.8 19.109-2.39 37.424-3.98 56.535-2.75 35.033-3.72 70.065-2.4 105.104-9.42-12.283-24.66-17.591-42.99-15.924-24.81 2.388-44.85 15.129-65.56 28.663-24.68 14.865-49.1 31.587-75.24 43.398-23.09 11.148-42.2.796-52.55-22.959-16.72-37.292-18.32-76.973-8.76-118.244 6.37 1.593 11.94 2.389 17.51 3.185 50.96 10.352 92.11-15.925 103.78-66.886 8.76-35.034-3.05-62.771-32.24-72.192-42.87-15.129-96.22-9.556-131.26 29.992-30.25 35.034-46.18 76.439-50.95 121.031-1.15 10.636-1.65 20.807-1.51 30.513l-.35 1.071c-13.4 39.016-27.74 77.236-48.44 113.068-7.96 13.534-16.72 25.479-29.46 35.035-16.72 11.944-31.85 7.166-39.82-11.149-7.16-16.719-9.55-35.034-7.16-52.552 4.78-36.627 11.94-74.051 18.31-110.679 7.97-42.201 15.93-84.402 15.13-128.198-.79-19.905-2.39-39.149-11.15-57.461-9.55-19.908-25.48-31.055-47.77-31.055-11.95-.797-23.89.795-35.17 3.185-19.11 3.185-32.65 14.333-44.59 27.87-15.13 18.312-29.46 37.556-44.59 55.869l-9.56 11.944c-1.59-3.185-1.59-5.574-1.59-8.759 3.98-24.683 11.94-47.907 21.5-70.999 11.94-27.074 24.69-53.349 35.83-80.423 17.52-42.2 32.65-85.994 36.63-132.176 3.98-37.426-7.96-70.071-30.26-98.737-11.14-14.464-26.27-19.242-42.2-12.872-25.48 10.352-48.57 24.816-61.31 51.094-5.58 11.944-11.94 23.886-16.85 35.83-33.45 82.812-48.58 169.602-54.95 257.192-3.4 50.437-3.89 100.199-1.98 150.349-.85 2.756-1.61 5.528-2.26 8.369-6.37 29.463-15.93 57.331-28.67 84.404-10.35 21.498-23.22 40.609-43.13 54.146-27.87 18.312-68.61 9.555-84.53-18.315-12.74-23.092-19.91-47.775-19.91-74.052 0-53.35 16.72-101.258 50.16-142.662 9.56-11.148 21.64-19.109 36.76-19.109 9.56.797 14.34 4.776 14.34 14.331v5.574c1.59 7.963 2.39 16.722 5.57 24.685 1.6 6.37 6.37 7.166 11.15 3.981 10.35-7.962 16.85-23.889 11.15-35.833-7.17-18.312-21.5-32.778-39.82-38.352-50.29-15.924-98.07-4.778-131.51 39.945-34.24 44.592-46.98 96.48-43.8 151.421 3.19 49.368 27.08 85.996 70.87 109.087l9.56 5.574c23.89 12.74 49.36 19.907 76.57 15.129 41.41-7.963 70.2-32.645 89.31-69.274 8.86-16.296 15.82-33.379 21.81-50.829.91 14.84 1.92 29.687 3.14 44.327 2.39 20.701 8.76 40.608 20.7 58.126 7.97 11.146 17.52 20.702 31.19 21.498 19.11 1.592 36.63-2.389 53.35-11.148 2.39-.797 3.98-3.183 4.78-4.776 3.18-9.555 6.37-18.314 4.78-28.665-2.39-31.85-6.38-62.905-5.58-94.754 1.59-35.833 5.58-70.867 18.31-104.309 15.13-40.61 40.62-72.46 80.43-90.908 7.29-3.183 12.87-1.591 14.46 6.371 1.59 7.3 2.39 14.466 1.59 21.633-3.98 17.516-7.96 35.034-12.74 53.349-11.94 46.182-19.9 93.956-24.68 141.732-2.39 22.296-3.98 44.59-1.59 67.682 3.18 20.703 7.96 41.404 19.9 59.719 19.11 31.053 60.52 44.589 94.76 31.849 21.5-7.96 37.42-23.09 51.76-41.405 19.9-25.479 33.44-54.941 45.38-85.198 1.39-3.623 2.74-7.253 4.05-10.886 14.44 43.857 49.09 74.371 105.97 92.634 42.99 13.669 81.88-1.592 118.24-25.481 16.72-10.349 33.58-22.959 51.09-32.38 5.71-3.848 15.27-4.645 21.64-2.256 3.18 1.459 3.18 12.474 3.98 18.713 0 2.389-.8 4.778-1.6 7.164-15.92 79.229-62.37 134.17-132.97 170.003-73.92 37.425-154.34 53.345-238.08 55.735-102.85 3.19-204.11-11.94-303.77-36.63-115.16-28.301-230.43-57.931-346.41-84.662Zm-248.79 590.422c-28.67-5.58-58.92-8.76-86.79-17.52-31.99-9.56-57.47-31.19-78.96-55.87-12.74-14.33-19.91-31.85-23.1-50.17-3.18-18.97 2.39-30.78 21.5-36.36 55.87-15.92 107.63-11.14 150.63 30.79 30.25 28.67 47.77 66.09 62.9 104.44 6.37 17.52 2.39 22.3-16.72 22.3h-28.67c0 .8 0 1.59-.79 2.39Zm220.56-145.05c-19.37-4.78-26.41-23.89-16.19-35.83 2.52-3.19 6.5-5.58 9.82-4.78 2.39 0 5.58 4.78 6.37 7.96.8 10.35 0 20.7 0 32.65ZM2270.26-604.729c-25.05-13.411-52.79-22.86-83.27-28.401-27.87-4.778-56.53.796-84.4 9.556-113.07 38.086-183.94 113.597-210.21 230.516-7.96 32.512-11.15 65.159-7.96 98.734 0 3.186 2.39 7.167 4.77 8.759 58.13 32.646 108.3 74.98 156.07 119.57 42.2 39.15 64.5 88.516 74.05 144.255 2.39 13.536 4.78 27.87 3.19 41.407-1.6 23.886-20.71 40.607-44.59 42.2-30.26 1.593-56.54-8.759-78.83-27.87-29.46-26.275-58.13-53.349-82.02-85.197-28.66-39.017-46.98-82.812-61.31-129.126-7.17-23.888-11.15-48.573-15.92-73.39-1.6-7.962-4.78-12.74-12.74-15.925-41.41-16.72-84.41-31.053-129-37.424-58.12-7.962-115.59-4.777-170.53 18.315-31.05 13.537-46.18 36.627-47.77 69.406-1.6 30.259 6.37 58.126 19.11 85.332 43.79 89.978 114.79 152.882 204.77 195.879 113.86 54.942 234.1 93.161 358.31 117.05 54.94 10.351 111.48 16.722 167.22 24.682 15.92 2.39 31.84 3.186 49.36 4.778 3.98-11.942 8.76-23.886 12.74-35.034 31.06-76.442 77.24-141.735 146.38-187.121 58.26-37.422 121.83-61.311 192.69-59.718 22.3.795 44.59 5.573 64.5 15.925 41.27 21.5 56.4 60.515 39.68 104.309-7.96 20.703-20.7 38.222-35.83 54.145-29.33 32.648-65.96 56.534-104.18 78.034-55.6 31.849-113.73 59.719-175.97 78.031-19.91 5.574-40.61 9.556-61.18 14.333-.79 16.722-3.18 34.241-3.18 51.757-3.19 97.94-7.17 196.013-9.56 293.951-.79 41.405 2.39 83.607 6.37 125.809 1.6 19.243 7.17 37.557 12.74 55.869 6.37 18.315 21.37 22.163 37.29 11.148 12.74-9.555 21.5-22.293 29.46-35.83 23.89-39.946 38.36-83.739 51.89-127.535l16.72-58.126c1.6-3.185 2.39-5.575 3.19-8.76 14.33 4.778 15.93 7.963 13.54 21.5-11.15 58.127-26.28 115.457-54.28 168.143-10.35 18.315-21.5 35.034-34.24 50.96-17.52 22.029-42.2 31.585-69.14 35.566-15.13 2.389-27.87-2.389-39.02-11.944-17.51-14.996-27.07-33.974-35.83-54.677-12.74-31.053-16.72-63.832-19.91-96.478-7.96-75.645-9.55-150.493-7.96-226.269 1.59-53.349 5.57-107.495 8.76-160.843l2.39-28.666c-12.74-.797-25.48-1.593-37.42-2.39-42.21-3.981-83.61-6.369-125.02-10.351-125.01-12.738-249.23-33.442-367.87-76.439-37.42-13.537-72.46-31.055-107.49-50.96-34.37-19.907-67.82-41.407-98.07-67.683-46.19-40.607-85.2-86.792-105.91-144.919-17.51-50.959-21.49-102.053-1.59-152.217 23.89-60.647 70.07-95.683 132.18-109.352 78.17-17.518 155.4-7.962 231.05 14.465 14.33 4.778 27.87 8.759 43 13.537v-33.575c3.98-80.29 35.03-148.634 88.38-208.22 51.76-57.995 117.84-87.456 191.9-100.728 57.19-11.015 113.6-7.033 167.74 13.272 14.86 5.873 28.82 12.641 41.92 20.267-1.13.772-2.16 1.734-3.11 2.872-5.71 4.697-8.97 14.678-10.47 27.872-5.51-19.318-13.19-31.148-23.87-28.353-2.79.728-5.05 2.259-6.84 4.486-2.06 1.635-3.66 3.943-4.87 6.831ZM4094.15 647.247c14.33-22.295 27.08-43.794 40.61-64.498 2.39-3.979 5.58-6.368 8.76-8.757 9.55-5.574 19.11-10.351 30.13-3.184 10.35 7.166 13.53 18.312 11.14 30.256-3.98 19.907-14.33 36.627-30.92 48.571-15.92 11.944-34.24 11.944-59.72-2.388Zm-384.85-172.39-2.39-55.738c-.8-36.627 0-74.05 3.98-111.475 3.98-32.645 8.76-65.293 23.89-94.753 3.98-7.167 8.75-13.537 12.74-19.908 3.18-3.981 6.37-3.981 8.76 0 4.77 6.371 10.35 13.537 12.73 21.5 7.17 22.296 7.17 45.386 3.99 68.478-7.17 64.497-30.26 123.42-57.33 181.547-1.6 3.182-3.19 6.368-4.78 9.553l-1.59.796Zm-1350.45-272.85C2376.37 109.642 2424.14 38.775 2505.49-9c26.28-15.129 54.81-23.887 85.87-23.09 15.13.796 30.26 3.981 43.79 10.35 27.87 14.333 39.02 41.407 29.46 70.867-8.75 27.074-27.87 46.182-48.57 63.701-36.63 29.462-79.49 47.774-122.49 65.293-41.54 16.721-83.74 22.293-126.6 23.886h-8.1Zm-480.01-446.699 5.58 1.593c43.79 27.074 87.58 54.146 123.42 90.774 35.03 35.034 58.12 76.439 73.25 123.42 2.39 7.961 3.98 17.517 3.98 26.276 0 12.74-9.55 23.091-23.88 22.296-8.76-.797-18.32-3.982-25.49-8.759-37.42-22.296-66.88-53.349-92.36-88.387-33.44-48.571-54.15-101.92-63.7-159.25-.8-2.388-.8-3.981-.8-7.963Z" style="fill:#fff" transform="matrix(1.53577 0 0 1.53577 -127.808 1007.886)"/></svg>