<?xml version="1.0" encoding="UTF-8" standalone="no"?>
<!DOCTYPE svg PUBLIC "-//W3C//DTD SVG 1.1//EN" "http://www.w3.org/Graphics/SVG/1.1/DTD/svg11.dtd">
<svg width="100%" height="100%" viewBox="0 0 7000 3735" version="1.1" xmlns="http://www.w3.org/2000/svg" xmlns:xlink="http://www.w3.org/1999/xlink" xml:space="preserve" xmlns:serif="http://www.serif.com/" style="fill-rule:evenodd;clip-rule:evenodd;stroke-miterlimit:22.9256;">
    <g id="Ebene-1" serif:id="Ebene 1" transform="matrix(6.03002,0,0,6.03002,1238.45,587.199)">
        <g transform="matrix(1.93364,0,0,1.93364,-367.681,-192.419)">
            <path d="M237.468,259.088C234.217,262.969 232.329,264.315 228.868,264.944C227.19,265.258 225.512,265.363 223.729,265.573C216.282,266.412 208.731,266.622 201.285,265.258L170.084,259.298C166.833,258.669 163.686,258.039 160.435,257.41L160.75,254.806C161.973,244.965 162.917,235.019 162.812,225.055C162.812,219.165 163.127,213.291 163.441,207.418C163.546,205.006 163.966,202.594 163.966,200.182C163.861,195.148 162.393,193.47 157.568,192.211C155.576,191.687 155.785,192.84 155.576,193.889C154.212,201.86 151.381,209.306 147.098,216.123C142.903,222.853 137.764,228.726 130.422,232.292C121.211,236.697 111.562,235.229 105.042,228.202C101.144,224.007 98.837,218.85 97.473,213.291C93.907,198.923 95.061,184.765 99.466,170.694C102.001,163.037 105.461,155.906 111.667,150.347C117.75,144.894 124.671,141.642 132.939,142.062C135.859,142.272 138.795,142.796 140.788,144.894C144.983,149.089 146.975,154.437 146.241,160.311C145.402,166.604 142.256,171.97 138.061,176.584C134.076,180.884 129.461,183.926 123.483,184.24C116.98,184.765 112.051,181.514 112.261,173.753C112.261,172.599 112.051,171.533 111.842,170.484C111.737,170.379 111.527,170.379 111.317,170.379C110.793,171.323 109.954,172.284 109.744,173.333C109.01,177.843 110.163,181.933 113.625,185.184C117.61,188.855 122.539,189.379 127.678,188.645C139.529,187.072 147.395,180.36 152.412,169.75C157.446,159.157 153.88,143.53 138.69,138.531C133.237,136.661 127.678,137.08 122.224,138.217C109.639,140.699 100.619,148.25 94.012,158.842C87.72,168.911 84.573,180.045 84.049,191.896C83.525,201.021 84.783,209.936 88.349,218.431C98.312,242.028 124.532,243.811 139.424,231.768C145.105,227.153 149.091,221.472 152.324,215.074C152.639,214.655 152.849,214.34 153.268,213.501C152.114,227.887 151.066,241.819 149.93,255.855C148.986,255.855 148.252,255.959 147.413,256.064C141.959,256.589 136.4,256.903 130.947,257.638C124.881,258.477 119.533,260.784 115.233,265.363C109.342,271.656 110.618,280.518 118.169,284.504C126.35,288.786 134.722,288.157 142.798,283.979C149.405,280.518 153.583,274.82 156.415,268.09C157.149,266.412 157.883,264.647 158.722,262.969C159.456,263.179 159.98,263.283 160.505,263.388C171.412,265.888 182.319,268.51 193.227,270.922C204.973,273.334 216.929,274.278 228.885,272.705C232.556,272.18 236.017,271.132 238.849,268.72C240.632,267.251 241.471,265.258 241.051,262.864C240.614,260.871 239.251,259.823 237.468,259.088ZM148.129,261.413C146.451,267.566 144.354,273.439 139.442,277.669C134.303,282.109 128.534,282.738 122.364,280.099C117.225,277.984 116.176,272.6 119.952,268.405C123.203,264.857 127.381,262.969 131.996,262.444C137.134,261.815 142.378,261.623 147.5,261.203C147.605,261.203 147.815,261.308 148.129,261.413Z" style="fill:white;fill-rule:nonzero;"/>
        </g>
        <g transform="matrix(1.93364,0,0,1.93364,-367.681,-192.419)">
            <path d="M187.248,194.081C187.248,191.565 185.151,189.572 182.739,189.572C180.222,189.572 178.229,191.565 178.229,194.081C178.229,196.494 180.222,198.591 182.739,198.591C185.151,198.591 187.248,196.494 187.248,194.081ZM202.246,194.081C202.246,191.565 200.253,189.572 197.736,189.572C195.324,189.572 193.227,191.565 193.227,194.081C193.227,196.494 195.324,198.591 197.736,198.591C200.253,198.591 202.246,196.494 202.246,194.081ZM193.437,211.177C193.856,209.813 194.38,208.345 194.905,206.981L195.534,205.723C196.058,204.884 196.792,204.36 197.946,204.569C198.575,204.674 199.205,204.674 199.729,204.779C202.351,205.513 203.924,207.401 203.819,210.128C203.819,211.911 203.609,213.589 203.505,215.372C203.19,221.455 202.77,227.433 202.456,233.516C202.351,236.347 202.456,239.074 202.665,241.906C202.665,242.955 203.085,243.899 203.4,244.842C203.819,245.786 204.763,245.996 205.497,245.157C206.336,244.108 207.28,242.955 207.805,241.696C209.378,237.396 210.846,232.991 212.314,228.691C213.258,226.174 213.993,223.657 214.832,221.035C215.671,221.35 216.51,221.56 217.348,221.769C216.824,223.972 216.405,226.069 215.775,228.062C214.832,231.628 213.888,235.299 212.629,238.759C211.79,241.381 210.427,243.794 208.644,245.786C206.966,247.674 204.973,248.303 202.456,247.674C198.156,246.625 195.324,243.899 193.961,239.703C193.227,237.081 192.702,234.355 192.073,231.628C191.968,231.313 191.968,230.998 191.863,230.474C191.339,232.572 190.814,234.564 190.185,236.452C189.241,238.864 188.402,241.277 187.144,243.479C184.941,247.464 183.053,248.618 177.81,247.464C170.678,245.891 165.329,239.494 164.909,232.152C164.385,225.125 165.958,218.623 169.944,212.75C172.461,208.974 175.922,206.457 180.536,205.933C183.997,205.513 187.563,205.618 190.5,208.03C191.653,208.974 192.493,210.233 193.437,211.177ZM176.132,230.789C176.341,232.677 176.551,234.564 176.866,236.347C177.285,238.654 177.915,240.752 179.173,242.745C180.012,244.003 180.222,244.003 181.27,242.955C183.053,241.172 184.207,239.074 185.151,236.871C188.088,229.95 189.661,222.608 191.024,215.267C191.234,213.799 190.814,212.435 189.975,211.281C189.346,210.233 188.297,209.813 187.039,210.023C185.256,210.233 183.893,211.281 182.739,212.645C178.544,217.994 176.341,223.972 176.132,230.789Z" style="fill:white;fill-rule:nonzero;"/>
        </g>
        <g transform="matrix(1.93364,0,0,1.93364,-367.681,-192.419)">
            <path d="M226.263,222.189L226.159,222.189C226.159,221.664 226.054,221.14 225.949,220.616C225.739,218.728 225.529,216.84 225.11,214.952C224.585,212.54 223.117,210.862 220.705,210.233C219.866,210.023 219.027,209.918 218.188,209.918C215.985,209.918 214.832,210.967 214.412,213.064C214.307,213.379 214.307,213.694 214.202,214.008C214.097,216.525 213.888,218.938 213.678,221.455C213.258,226.803 213.153,232.152 213.468,237.501C213.573,239.808 213.993,242.116 214.936,244.318C216.405,247.464 218.712,249.038 221.963,248.828C223.012,248.723 223.956,248.408 224.585,247.569C225.11,246.94 225.529,246.206 225.739,245.472C226.683,242.85 227.417,240.333 228.256,237.711C230.249,231.103 232.346,224.496 234.549,217.889C235.807,213.799 237.695,210.128 240.317,206.772C240.527,206.667 240.632,206.457 240.736,206.352C241.261,207.506 241.576,208.555 241.366,209.708L240.422,214.113C239.163,220.301 237.905,226.594 236.751,232.781C235.807,238.13 235.283,243.479 235.492,248.933C235.597,251.764 235.807,254.701 236.541,257.428C237.275,260.784 239.058,263.301 241.995,264.979C244.407,266.342 246.924,266.028 248.917,264.245C249.127,264.035 249.232,263.93 249.127,263.616C247.973,260.784 247.449,257.847 247.239,254.806C247.029,251.03 247.029,247.255 247.659,243.584C247.973,241.801 248.393,240.123 248.707,238.34C249.232,236.033 249.546,233.62 250.07,231.313C251.119,226.489 252.483,221.769 253.112,216.84C253.532,214.113 253.741,211.281 253.322,208.45C252.797,205.199 251.224,202.716 248.288,201.038C244.093,198.644 240.317,199.063 236.751,202.297C235.283,203.538 234.129,204.989 233.395,206.772C231.717,210.128 230.144,213.694 228.57,217.155C227.731,218.833 226.998,220.511 226.263,222.189Z" style="fill:white;fill-rule:nonzero;"/>
        </g>
        <g transform="matrix(1.93364,0,0,1.93364,-367.681,-192.419)">
            <path d="M278.09,232.886C277.356,231.663 276.727,230.422 276.098,229.163C272.217,222.014 267.69,215.389 262.551,209.097C262.236,208.782 262.026,208.362 262.026,207.943C262.236,205.723 262.656,203.625 262.761,201.423C262.97,199.098 262.97,196.686 262.131,194.378C260.995,191.32 257.954,190.481 255.454,192.368C254.003,193.435 253.164,194.798 252.745,196.476C251.801,199.535 252.011,202.577 252.64,205.618C253.479,209.656 254.93,213.432 256.695,217.102C256.905,217.312 257.01,217.731 256.905,218.046C256.485,220.144 256.066,222.241 255.559,224.234C255.244,225.702 254.825,227.066 254.51,228.534C255.244,228.744 255.856,229.058 256.59,229.268C257.412,226.751 258.251,224.444 259.09,222.031C259.09,222.136 259.195,222.136 259.195,222.241C261.922,227.8 264.649,233.306 267.27,238.864C267.375,238.969 267.27,239.389 267.166,239.598C266.117,240.962 265.068,242.325 264.124,243.689C261.188,248.094 258.671,252.708 258.146,258.057C257.412,264.35 259.614,269.594 264.753,273.264C267.48,275.257 270.539,276.096 273.895,275.571C277.985,274.837 280.503,272.111 282.076,268.44C284.593,262.462 284.593,256.274 283.544,249.981C282.705,245.157 281.656,240.542 279.559,236.033C284.488,233.83 289.627,233.201 295.081,233.516C295.186,232.589 295.186,231.663 295.29,230.736C289.312,229.792 283.649,230.736 278.09,232.886ZM259.108,204.884C257.22,202.786 256.905,200.269 257.429,197.63C257.534,197.105 257.727,196.581 257.831,196.057C257.936,195.847 258.146,195.532 258.251,195.532C258.461,195.637 258.671,195.742 258.775,195.847C258.985,196.476 259.3,197.105 259.405,197.735C259.405,200.059 259.3,202.367 259.195,204.674C259.212,204.674 259.108,204.779 259.108,204.884ZM268.424,243.584L270.015,248.513C271.064,252.079 271.903,255.645 272.008,259.316C272.112,260.889 272.008,262.462 271.588,263.93C271.064,266.342 268.739,267.811 266.536,267.496C264.963,267.181 263.914,266.133 263.18,264.769C262.131,262.881 261.817,260.889 262.026,258.791C262.341,253.128 264.544,248.094 268.215,243.794C268.215,243.689 268.319,243.689 268.424,243.584Z" style="fill:white;fill-rule:nonzero;"/>
        </g>
        <g transform="matrix(1.93364,0,0,1.93364,-367.681,-192.419)">
            <path d="M323.59,217.277C323.485,217.592 323.485,217.697 323.485,217.801C322.646,220.336 322.017,222.958 321.178,225.44C320.129,228.377 319.08,231.418 317.926,234.25C317.297,235.718 316.458,237.081 315.619,238.34C313.627,241.067 311.109,243.06 307.753,243.899C306.914,244.108 305.866,244.318 305.027,244.108C301.88,243.269 299.888,241.067 298.944,238.025C297.895,234.669 297.79,230.998 298.105,227.433C298.21,226.279 298.524,225.125 298.629,224.094C299.992,224.391 301.251,224.706 302.509,224.916C306.6,225.44 309.851,223.989 312.263,220.755C313.941,218.553 314.885,216.123 314.885,213.274C314.99,210.547 313.731,208.135 311.319,206.876C309.746,206.038 308.068,205.723 306.285,205.618C301.985,205.199 298.21,206.143 294.853,208.974C292.546,210.862 290.973,213.274 289.61,215.914C287.826,219.602 286.883,223.465 286.463,227.538C286.254,230.998 286.463,234.355 287.826,237.501C290.553,243.479 295.063,247.15 301.67,247.884C303.768,248.094 305.866,247.884 307.963,247.359C311.529,246.52 314.466,244.737 316.668,241.801C318.031,240.018 319.29,238.235 320.339,236.242C323.171,230.789 324.429,224.811 325.583,218.868C325.688,218.763 325.583,218.553 325.478,218.553C324.953,218.133 324.324,217.697 323.59,217.277ZM299.468,221.385C299.888,220.441 300.202,219.497 300.622,218.658C301.67,216.333 302.929,214.235 304.502,212.33C305.341,211.281 306.495,210.757 307.753,210.442C308.907,210.338 309.956,210.862 310.585,212.016C311.214,213.274 311.319,214.655 310.795,216.018C310.166,218.133 309.012,219.916 307.229,221.28C305.131,222.853 302.929,222.748 300.517,221.926L299.783,221.594C299.678,221.594 299.678,221.49 299.468,221.385Z" style="fill:white;fill-rule:nonzero;"/>
        </g>
        <g transform="matrix(1.93364,0,0,1.93364,-367.681,-192.419)">
            <path d="M366.275,218.938C367.849,218.833 369.317,218.623 370.785,218.518C372.254,218.413 373.827,218.413 375.295,218.938C375.505,219.042 376.029,218.938 376.029,218.728C376.449,217.889 376.868,217.05 377.078,216.106C377.393,214.428 376.658,213.484 374.875,213.274C372.987,212.96 371.205,213.484 369.317,214.008C368.268,214.218 367.324,214.533 366.171,214.847L366.171,214.428C365.856,211.596 365.226,208.974 363.968,206.457C363.024,204.569 361.975,202.681 360.193,201.528C356.732,199.203 352.973,198.888 349.198,200.689C342.992,203.625 338.71,208.45 336.071,214.847C335.529,216.106 335.214,217.469 334.795,218.833L334.585,219.357C334.585,214.742 334.795,210.128 334.795,205.513C334.795,204.464 335.214,203.625 335.739,202.786C336.385,201.947 337.014,201.108 337.539,200.269C342.049,193.225 346.052,185.884 348.778,178.018C351.103,171.096 352.344,163.964 351.313,156.623C350.893,153.371 349.932,150.33 348.149,147.498C347.939,147.184 347.834,146.869 347.52,146.659C345.947,145.715 344.356,145.401 342.573,146.135C341.017,146.869 339.759,147.813 338.5,149.071C334.9,152.532 332.487,156.832 330.599,161.342C327.855,167.74 326.492,174.452 325.233,181.164C323.765,188.4 323.031,195.637 322.401,202.996C321.877,210.652 321.982,218.203 322.297,225.859C322.401,229.74 322.716,233.725 323.031,237.606C323.241,240.437 323.975,243.06 325.758,245.367C326.701,246.73 327.96,247.779 329.656,247.779C331.648,247.779 333.641,247.359 335.424,246.415C335.739,246.311 336.071,245.891 336.28,245.472C336.91,244.213 336.91,242.745 336.805,241.277C336.175,236.452 336.071,231.523 336.49,226.594C337.014,220.721 339.234,215.581 343.097,211.072C344.356,209.603 345.737,208.24 347.52,207.506C349.617,206.772 351.628,207.191 352.869,208.869C353.498,209.708 354.022,210.547 354.337,211.491C355.368,214.218 355.158,217.155 354.949,219.986C354.949,220.196 354.652,220.406 354.442,220.616L350.037,223.342C346.891,225.65 343.831,228.167 341.734,231.523C339.864,234.669 339.444,238.025 341.017,241.486C341.839,243.269 342.992,244.737 344.461,246.101C346.471,247.989 348.883,248.513 351.523,247.779C353.603,247.15 355.368,245.891 356.836,244.213C359.668,241.067 361.556,237.396 363.234,233.516C365.226,228.901 366.066,224.076 366.275,218.938ZM335.424,191.862C336.7,181.793 338.92,172.144 342.678,162.915C343.412,161.342 344.251,159.769 345.09,158.301C345.405,157.776 345.947,157.042 346.576,157.357C346.995,157.462 347.31,158.301 347.415,158.825C347.834,161.552 347.52,164.279 346.891,166.901C345.195,174.766 342.258,182.213 337.854,188.925C337.224,189.869 336.595,190.603 335.843,191.442L335.424,191.862ZM354.652,223.657C353.917,225.964 353.498,228.167 352.554,230.264C351.523,232.886 350.142,235.403 348.778,237.815C347.834,239.389 346.261,240.228 344.461,240.542C343.202,240.857 342.363,239.808 342.363,238.235C342.468,236.662 343.097,235.194 343.831,233.83C346.261,229.425 349.827,226.174 354.127,223.657L354.652,223.657Z" style="fill:white;fill-rule:nonzero;"/>
        </g>
        <g transform="matrix(1.93364,0,0,1.93364,-367.681,-192.419)">
            <path d="M434.009,187.159L434.009,186.845C433.904,186.74 433.799,186.635 433.694,186.635C432.96,186.635 432.016,191.565 429.814,192.089C428.975,192.508 428.241,192.718 427.297,192.718C422.892,192.718 417.631,187.789 413.645,187.789C412.806,187.789 412.072,187.999 411.443,188.418C408.401,190.306 406.199,195.55 406.199,197.542C406.199,198.067 406.304,198.382 406.618,198.382L406.723,198.382C408.296,197.333 407.143,193.872 410.813,192.928C411.338,192.823 411.862,192.718 412.386,192.718C417.106,192.718 421.616,197.542 425.723,197.542C426.458,197.542 427.297,197.333 428.031,196.913L427.926,196.913C431.282,195.025 434.009,189.152 434.009,187.159ZM449.216,220.93C450.055,221.245 450.789,221.455 451.628,221.664L450.685,225.964C449.426,230.369 448.272,234.669 446.804,238.969C445.965,241.591 444.602,244.213 442.504,246.206C441.036,247.674 439.253,248.198 437.26,247.674C432.541,246.73 429.499,243.794 428.136,239.284C427.297,236.452 426.772,233.516 426.038,230.789C426.038,230.789 425.933,230.894 425.933,231.103C424.885,235.194 423.731,239.179 421.721,242.955C421.196,243.899 420.567,244.842 419.938,245.681C418.679,247.359 416.896,247.989 414.904,247.884C407.038,247.569 400.326,241.277 399.277,233.516C398.333,226.384 399.277,219.462 401.165,212.645C401.899,209.813 402.843,207.191 403.682,204.36L404.101,203.625C405.465,204.15 406.828,204.779 408.191,205.408C408.821,205.723 409.45,206.143 409.974,206.667C411.023,207.506 411.338,208.659 411.233,210.023C410.918,215.476 410.499,220.93 410.394,226.384C410.289,230.474 410.604,234.564 411.548,238.55C411.967,240.228 412.596,241.801 413.75,243.164C414.379,243.794 414.484,243.794 415.218,243.164C417.316,241.172 418.574,238.759 419.623,236.138C421.93,230.684 423.311,224.811 424.57,219.042C425.304,215.686 426.248,212.33 427.192,208.974C427.611,207.611 428.346,206.562 429.289,205.618C430.443,204.674 431.597,204.15 433.17,204.464C436.946,205.303 438.414,207.506 438.204,211.281C437.68,218.728 437.155,226.069 436.736,233.516C436.631,236.452 436.841,239.389 436.946,242.22C437.051,243.06 437.26,243.899 437.575,244.632C438.099,245.786 438.938,245.996 439.882,245.052C440.511,244.318 441.141,243.584 441.455,242.745C442.609,240.018 443.868,237.291 444.811,234.564C446.28,230.369 447.538,226.069 448.902,221.874C449.006,221.56 449.111,221.35 449.216,220.93Z" style="fill:white;fill-rule:nonzero;"/>
        </g>
        <g transform="matrix(1.92187,0.212995,0.212995,-1.92187,-433.903,544.888)">
            <circle cx="380.13" cy="331.908" r="5.411" style="fill:white;"/>
        </g>
        <g transform="matrix(0.254688,0,0,0.254688,-226.576,69.7654)">
            <path d="M2315.2,-597.352C2317.64,-600.267 2320.62,-602.025 2324.23,-602.397C2335.43,-603.554 2341.23,-590.149 2343.65,-569.542C2346.74,-581.133 2350.82,-589.997 2356.16,-594.585C2359.49,-598.403 2363.35,-600.426 2367.84,-600.198C2387.4,-599.207 2384.07,-557.183 2374.3,-510.728C2382.89,-542.078 2393.44,-569.831 2405.57,-580.881C2410.79,-586.567 2416.32,-589.204 2422.12,-587.694C2433.1,-584.836 2433.77,-570.053 2428.7,-549.656C2432.21,-554.648 2435.73,-558.89 2439.2,-562.177C2446.91,-570.292 2454.46,-573.955 2461.44,-570.963C2471.93,-566.47 2470.31,-551.607 2462.12,-532.041C2463.17,-533.135 2464.2,-534.184 2465.23,-535.185C2477.57,-547.846 2488.88,-554.009 2497.46,-548.705C2513.82,-538.601 2491.8,-504.485 2461.72,-469.176C2464.26,-471.806 2466.78,-474.379 2469.31,-476.884C2497.58,-505.342 2524.71,-525.194 2537.42,-513.401C2545.46,-505.945 2539.75,-493.243 2526.62,-478.364C2543.3,-486.945 2556.75,-489.46 2563.32,-481.306C2569.26,-473.933 2564.49,-464.162 2553.32,-453.362C2551.56,-451.539 2549.61,-449.682 2547.48,-447.805C2565.33,-453.93 2579.08,-454.5 2584.42,-445.442C2588.17,-439.066 2585.24,-432.194 2577.77,-425.179C2568.59,-415.352 2549.99,-405.158 2527.88,-395.555C2565.41,-407.097 2597.74,-411.564 2603.38,-395.454C2605.25,-390.094 2603.21,-385.214 2598.23,-380.782C2594.12,-376.108 2586.79,-371.904 2577.26,-368.131C2596.31,-367.852 2609.58,-363.715 2611.52,-353.318C2612.39,-348.665 2610.62,-344.753 2606.76,-341.477C2602.51,-336.373 2593.7,-332.631 2581.99,-329.936C2600.53,-326.73 2612.82,-320.628 2613.15,-310.139C2613.27,-306.18 2611.65,-303.017 2608.59,-300.538C2604.28,-295.11 2594.48,-292.264 2581.34,-291.237C2598.62,-285.273 2609.42,-277.463 2608.16,-267.233C2607.76,-263.972 2606.26,-261.435 2603.81,-259.533C2599.37,-253.712 2588.78,-252.002 2574.59,-253.025C2590.3,-244.597 2599.43,-235.363 2596.67,-225.598C2595.95,-223.04 2594.58,-221.061 2592.65,-219.601C2588.03,-213.45 2577.24,-212.936 2562.94,-216.044C2576.27,-205.716 2583.26,-195.61 2579.2,-186.688C2578.35,-184.819 2577.17,-183.349 2575.7,-182.246C2570.86,-175.803 2560.36,-176.319 2546.71,-181.24C2557.14,-169.829 2561.75,-159.527 2556.7,-151.73C2555.91,-150.51 2554.99,-149.512 2553.95,-148.725C2548.54,-141.666 2537.89,-143.407 2524.45,-150.56C2532.71,-138.089 2535.52,-127.521 2529.52,-120.682C2528.98,-120.068 2528.41,-119.529 2527.82,-119.067C2527.67,-118.884 2527.52,-118.706 2527.37,-118.53C2521.07,-111.353 2510.51,-114.489 2497.81,-123.82C2503.96,-110.53 2505.09,-99.872 2498.25,-94.052C2498.13,-93.949 2498.01,-93.848 2497.89,-93.752C2497.37,-93.088 2496.77,-92.47 2496.1,-91.899C2484.67,-82.169 2466.5,-99.19 2447.49,-125.899C2459.72,-98.893 2465.11,-76.314 2454.62,-68.131C2453.6,-66.827 2452.34,-65.74 2450.82,-64.888C2442.14,-60.023 2432.83,-67.253 2423.6,-81.382C2424.97,-68.34 2423.39,-58.455 2417.49,-53.824C2416.05,-52.007 2414.23,-50.644 2412,-49.795C2402.51,-46.194 2394.23,-55.127 2387.1,-71.02C2386.62,-58.807 2384.08,-49.606 2378.62,-45.226C2376.66,-42.825 2374.21,-41.229 2371.21,-40.576C2360.81,-38.317 2353.76,-49.507 2349.06,-67.803C2347.02,-56.03 2343.6,-47.121 2338.29,-42.713C2335.65,-39.576 2332.44,-37.751 2328.6,-37.515C2323.46,-37.202 2319.58,-39.877 2316.72,-44.85C2316.44,-44.574 2316.15,-44.312 2315.86,-44.062C2312.78,-40.491 2309.15,-38.539 2304.88,-38.594C2293.02,-38.747 2288.98,-54.231 2289.41,-76.804C2285.3,-65.713 2280.59,-57.084 2275.19,-52.288C2270.93,-47.543 2266.22,-45.233 2261.02,-46.105C2217.45,-53.4 2313.48,-254.488 2313.48,-254.488C2313.48,-254.488 2313.44,-253.548 2313.36,-251.797C2314.81,-254.923 2315.63,-256.64 2315.63,-256.64C2315.63,-256.64 2314.75,-235.165 2312.17,-205.995C2319.12,-233.134 2324.97,-252.558 2324.97,-252.558C2324.97,-252.558 2325.12,-251.222 2325.38,-248.76C2326.49,-252.584 2327.12,-254.709 2327.12,-254.709C2327.12,-254.709 2327.99,-246.997 2329.09,-234.502C2331.33,-245.624 2332.83,-252.379 2332.83,-252.379C2332.83,-252.379 2333.11,-250.874 2333.6,-248.117C2334.47,-252.236 2334.98,-254.531 2334.98,-254.531C2334.98,-254.531 2337.75,-239.777 2341.03,-217.998C2341.73,-239.228 2342.67,-253.562 2342.67,-253.562C2342.67,-253.562 2343.3,-251.777 2344.4,-248.533C2344.65,-253.131 2344.82,-255.715 2344.82,-255.715C2344.82,-255.715 2349.4,-242.713 2355.55,-223.13C2353.28,-242.929 2352.17,-256.171 2352.17,-256.171C2352.17,-256.171 2353.2,-254.224 2355.02,-250.706C2354.55,-255.573 2354.32,-258.323 2354.32,-258.323C2354.32,-258.323 2360.49,-246.689 2369.16,-228.935C2364.15,-247.648 2361.2,-260.161 2361.2,-260.161C2361.2,-260.161 2362.66,-258.178 2365.23,-254.608C2364.01,-259.524 2363.35,-262.313 2363.35,-262.313C2363.35,-262.313 2376.43,-244.596 2392.97,-219.771C2379.52,-246.267 2370.49,-266.198 2370.49,-266.198C2370.49,-266.198 2372.5,-264.361 2376.02,-261.059C2373.84,-265.703 2372.64,-268.35 2372.64,-268.35C2372.64,-268.35 2381.67,-260.088 2394.98,-247.113C2384.47,-262.468 2377.84,-272.785 2377.84,-272.785C2377.84,-272.785 2380.2,-271.19 2384.32,-268.315C2381.54,-272.531 2379.99,-274.937 2379.99,-274.937C2379.99,-274.937 2390.18,-268.037 2405.29,-257.077C2392.41,-270.987 2384.18,-280.427 2384.18,-280.427C2384.18,-280.427 2386.8,-279.167 2391.38,-276.878C2388.14,-280.511 2386.34,-282.58 2386.34,-282.58C2386.34,-282.58 2397.65,-277.122 2414.47,-268.321C2399.23,-280.552 2389.35,-288.988 2389.35,-288.988C2389.35,-288.988 2392.11,-288.127 2396.97,-286.539C2393.45,-289.472 2391.5,-291.141 2391.5,-291.141C2391.5,-291.141 2404.32,-287.142 2423.27,-280.518C2405.18,-290.949 2393.22,-298.37 2393.22,-298.37C2393.22,-298.37 2396,-297.947 2400.91,-297.133C2397.35,-299.293 2395.37,-300.522 2395.37,-300.522C2395.37,-300.522 2409.43,-298.384 2430.13,-294.487C2409.5,-302.436 2395.62,-308.332 2395.62,-308.332C2395.62,-308.332 2398.29,-308.339 2403.03,-308.291C2399.64,-309.69 2397.78,-310.484 2397.78,-310.484C2397.78,-310.484 2412.62,-310.524 2434.44,-309.791C2411.88,-314.674 2396.48,-318.578 2396.48,-318.578C2396.48,-318.578 2398.91,-318.96 2403.25,-319.589C2400.26,-320.316 2398.63,-320.73 2398.63,-320.73C2398.63,-320.73 2414.11,-323.166 2436.74,-325.861C2412.55,-327.275 2395.76,-328.874 2395.76,-328.874C2395.76,-328.874 2397.85,-329.54 2401.6,-330.694C2399.21,-330.903 2397.91,-331.026 2397.91,-331.026C2397.91,-331.026 2413.55,-336.023 2436.35,-342.35C2411.21,-339.956 2393.45,-338.943 2393.45,-338.943C2393.45,-338.943 2395.13,-339.777 2398.18,-341.254C2396.5,-341.147 2395.61,-341.096 2395.61,-341.096C2395.61,-341.096 2424.7,-355.561 2461.17,-370.828C2422.21,-358.123 2389.04,-349.556 2389.04,-349.556C2389.04,-349.556 2390.16,-350.415 2392.22,-351.975C2391.55,-351.799 2391.2,-351.708 2391.2,-351.708C2391.2,-351.708 2405.49,-362.733 2426.34,-377.485C2401.69,-365.897 2383.65,-358.294 2383.65,-358.294C2383.65,-358.294 2387.39,-362.164 2393.78,-368.544C2399.51,-374.29 2408.01,-382.686 2418.22,-392.392C2394.61,-376.746 2376.99,-366.108 2376.99,-366.108C2376.99,-366.108 2402.66,-401.817 2433.8,-438.225C2425.62,-429.586 2417.5,-421.306 2409.94,-413.762C2386.68,-390.436 2368.1,-373.543 2368.1,-373.543C2368.1,-373.543 2376.66,-392.284 2389.6,-417.491C2373.43,-395.963 2361.24,-381.029 2361.24,-381.029C2361.24,-381.029 2361.32,-381.302 2361.47,-381.83C2359.94,-379.913 2359.09,-378.876 2359.09,-378.876C2359.09,-378.876 2364.55,-397.847 2373.28,-423.83C2360.88,-400.865 2351.44,-384.913 2351.44,-384.913C2351.44,-384.913 2351.53,-385.605 2351.7,-386.91C2350.15,-384.228 2349.28,-382.761 2349.28,-382.761C2349.28,-382.761 2354.61,-423.535 2364.17,-468.548C2352.6,-424.927 2339.7,-387.306 2339.7,-387.306C2339.7,-387.306 2339.61,-388.548 2339.46,-390.844C2338.24,-387.181 2337.55,-385.154 2337.55,-385.154C2337.55,-385.154 2336.22,-403.141 2335.39,-428.655C2331.98,-404.477 2328.98,-387.704 2328.98,-387.704C2328.98,-387.704 2328.61,-389.297 2327.97,-392.206C2327.26,-387.937 2326.83,-385.552 2326.83,-385.552C2326.83,-385.552 2322.97,-402.235 2318.4,-426.298C2318.68,-402.701 2318.3,-386.374 2318.3,-386.374C2318.3,-386.374 2317.56,-388.218 2316.26,-391.56C2316.2,-386.862 2316.14,-384.222 2316.14,-384.222C2316.14,-384.222 2305.17,-411.648 2293.51,-446.764C2301.8,-411.275 2306.84,-382.823 2306.84,-382.823C2306.84,-382.823 2305.54,-384.809 2303.26,-388.385C2304.2,-383.461 2304.69,-380.671 2304.69,-380.671C2304.69,-380.671 2296.57,-393.08 2285.3,-411.743C2292.71,-391.73 2297.28,-378.024 2297.28,-378.024C2297.28,-378.024 2295.55,-379.967 2292.53,-383.458C2294.21,-378.622 2295.12,-375.872 2295.12,-375.872C2295.12,-375.872 2278.34,-394.771 2257.72,-420.637C2275.33,-392.774 2287.71,-370.89 2287.71,-370.89C2287.71,-370.89 2285.48,-372.59 2281.57,-375.652C2284.14,-371.248 2285.56,-368.738 2285.56,-368.738C2285.56,-368.738 2274.27,-377.349 2258,-390.687C2271.49,-374.42 2280.24,-363.138 2280.24,-363.138C2280.24,-363.138 2277.72,-364.539 2273.29,-367.072C2276.37,-363.197 2278.09,-360.986 2278.09,-360.986C2278.09,-360.986 2254.36,-374.159 2224.89,-392.75C2252.7,-371.084 2273.51,-353.036 2273.51,-353.036C2273.51,-353.036 2270.75,-353.92 2265.9,-355.545C2269.41,-352.576 2271.36,-350.884 2271.36,-350.884C2271.36,-350.884 2243.51,-359.803 2209.26,-373.072C2242.71,-356.513 2268.7,-341.789 2268.7,-341.789C2268.7,-341.789 2265.93,-342.098 2261.03,-342.709C2264.58,-340.75 2266.54,-339.637 2266.54,-339.637C2266.54,-339.637 2249.89,-341.495 2226.1,-345.104C2249.75,-337.151 2266.12,-330.95 2266.12,-330.95C2266.12,-330.95 2263.51,-330.839 2258.85,-330.7C2262.15,-329.488 2263.97,-328.799 2263.97,-328.799C2263.97,-328.799 2226.14,-327.192 2182.44,-328.561C2226.9,-324.637 2265.49,-318.492 2265.49,-318.492C2265.49,-318.492 2263.25,-317.93 2259.23,-316.97C2261.89,-316.57 2263.33,-316.34 2263.33,-316.34C2263.33,-316.34 2245.14,-311.764 2219.34,-306.435C2246.94,-307.433 2266.84,-307.336 2266.84,-307.336C2266.84,-307.336 2265,-306.556 2261.65,-305.184C2263.62,-305.188 2264.69,-305.183 2264.69,-305.183C2264.69,-305.183 2225.83,-288.778 2181.43,-274.146C2227.55,-286.993 2270.59,-295.451 2270.59,-295.451C2270.59,-295.451 2269.3,-294.577 2266.95,-293.002C2267.92,-293.198 2268.43,-293.299 2268.43,-293.299C2268.43,-293.299 2232.61,-268.873 2191.26,-245.458C2234.69,-267.42 2276.44,-284.516 2276.44,-284.516C2276.44,-284.516 2275.3,-283.357 2273.19,-281.26C2269.34,-277.389 2255.64,-263.748 2237.37,-246.873C2263.35,-263.879 2283.33,-275.68 2283.33,-275.68C2283.33,-275.68 2251.42,-232.173 2215.49,-192.46C2208.13,-184.315 2200.59,-176.33 2193.13,-168.913C2163.43,-139.033 2134.51,-117.49 2121.44,-129.852C2113.06,-137.78 2119.95,-151.368 2134.72,-167.125C2116.79,-157.689 2102.3,-154.648 2095.49,-163.274C2089.73,-170.564 2094.31,-180.055 2105.11,-190.494C2116.2,-202.005 2135.43,-214.813 2157.11,-227.185C2116.65,-207.007 2078.67,-194.112 2069.99,-211.03C2066.89,-217.079 2069.45,-223.214 2075.98,-229.262C2086.83,-241.083 2113.56,-252.666 2143.84,-262.749C2099.68,-250.712 2059.13,-245.283 2053.91,-263.77C2052.49,-268.837 2054.39,-273.284 2058.87,-277.19C2063.41,-282.478 2072.45,-286.84 2084.31,-290.437C2064.05,-291.687 2050.05,-296.619 2048.72,-307.542C2048.18,-311.908 2049.88,-315.491 2053.39,-318.408C2062.68,-329.806 2095.59,-332.547 2132.81,-331.567C2088.54,-335.85 2050.49,-344.952 2052.03,-363.657C2052.32,-367.098 2053.85,-369.788 2056.45,-371.825C2061.1,-377.865 2072.48,-379.779 2087.66,-378.994C2070.38,-387.029 2059.97,-396.22 2062.44,-406.501C2063.1,-409.24 2064.5,-411.358 2066.56,-412.925C2074.68,-423.712 2102.48,-417.897 2134.96,-405.904C2101.81,-423.267 2077.55,-441.798 2084.49,-456.742C2085.34,-458.576 2086.51,-460.02 2087.96,-461.108C2096.45,-472.4 2122.09,-462.234 2151.71,-444.354C2124.44,-466.887 2106.18,-488.549 2115.53,-501.33C2116.24,-502.307 2117.04,-503.124 2117.91,-503.788C2123.8,-511.378 2135.02,-508.728 2148.93,-500.002C2140.93,-513.348 2138.43,-524.429 2144.97,-531.081C2145.36,-531.481 2145.76,-531.845 2146.18,-532.174C2146.47,-532.537 2146.78,-532.891 2147.12,-533.232C2157.99,-544.306 2178.59,-527.537 2200.74,-501.131C2184.6,-528.892 2176.23,-552.742 2187.59,-561.653C2188.38,-562.659 2189.32,-563.547 2190.43,-564.307C2198.8,-570.054 2208.97,-563.303 2219.68,-549.501C2216.77,-563.467 2217.53,-574.163 2223.93,-579.154C2225.1,-580.647 2226.57,-581.844 2228.35,-582.716C2243.52,-590.137 2258.57,-562.635 2271.37,-525.841C2264.75,-557.759 2263.28,-584.791 2274.02,-593.347C2275.82,-595.574 2278.08,-597.105 2280.87,-597.833C2291.55,-600.628 2299.23,-588.798 2304.74,-569.481C2306.24,-582.674 2309.49,-592.655 2315.2,-597.352ZM2301.13,-257.707C2302.7,-259.813 2303.56,-260.953 2303.56,-260.953C2303.56,-260.953 2290.58,-208.575 2272.45,-158.181C2259.58,-122.406 2244.11,-87.632 2228.85,-73.309C2221.88,-65.925 2214.94,-62.596 2208.27,-65.164C2167.04,-81.04 2301.41,-258.801 2301.41,-258.801C2301.41,-258.801 2301.31,-258.425 2301.13,-257.707ZM2241.56,-218.759C2269.04,-246.295 2292.71,-267.385 2292.71,-267.385C2292.71,-267.385 2269.79,-218.533 2242.21,-172.63C2226.79,-146.961 2209.9,-122.214 2194.75,-107.448C2181.96,-94.344 2170.28,-87.904 2161.55,-93.415C2137.92,-108.338 2195.83,-173.158 2241.56,-218.759Z" style="fill:white;stroke:white;stroke-width:2.83px;"/>
        </g>
        <g transform="matrix(0.254688,0,0,0.254688,-226.576,69.7654)">
            <path d="M3282.2,930.318C3285.14,918.992 3287.41,907.667 3289.67,896.342C3289.67,893.157 3290.47,889.174 3289.67,885.99C3283.3,865.289 3279.32,842.993 3279.32,820.699C3279.32,799.995 3280.91,778.495 3282.51,756.998C3285.95,720.369 3289.14,684.538 3297.1,649.504C3303.47,621.634 3306.66,593.766 3301.88,565.896C3295.51,527.677 3273.22,503.788 3223.85,508.566C3202.35,510.954 3186.29,523.695 3174.35,541.212C3164.79,555.544 3156.03,570.674 3147.28,585.803L3135.33,608.097C3133.74,605.708 3134.53,604.115 3133.74,601.727C3133.74,589.785 3132.94,577.84 3131.35,565.896C3129.76,550.766 3124.98,537.232 3114.63,526.084C3097.11,506.973 3061.28,501.399 3035.8,513.344C3019.87,521.306 3007.93,534.047 2999.17,549.174C2984.04,576.248 2968.91,604.115 2954.58,631.189C2952.19,635.17 2950.6,638.356 2948.21,643.93C2947.42,639.948 2946.62,638.356 2946.62,635.967C2944.23,621.634 2942.64,606.505 2939.45,592.174C2928.3,549.174 2897.25,535.64 2857.44,545.193L2857.44,553.952C2853.46,603.32 2851.07,652.689 2846.29,702.056C2843.9,737.091 2845.49,771.329 2853.46,804.773C2859.03,827.066 2872.57,842.993 2893.27,853.344C2907.6,859.714 2918.75,856.53 2926.71,842.196C2929.9,838.215 2931.49,832.641 2933.08,827.863C2952.99,764.164 2973.69,700.464 2993.6,637.56C3002.36,610.486 3012.71,585.007 3030.22,562.711C3035,557.137 3039.78,555.544 3044.56,557.137C3050.13,559.526 3052.52,565.1 3051.72,572.267C3050.93,577.044 3050.13,581.822 3048.54,587.396C3037.39,639.152 3031.02,690.909 3032.61,744.258C3033.41,776.903 3037.39,809.55 3048.54,840.603C3049.34,842.993 3050.13,846.178 3051.72,846.974C3058.1,850.159 3063.67,853.344 3070.04,855.733C3078,858.122 3086.76,855.733 3091.54,848.567C3096.31,842.196 3100.3,835.03 3102.68,827.863C3117.02,784.07 3129.76,740.276 3144.09,697.278C3153.64,666.223 3164,635.17 3175.14,604.912C3180.72,588.989 3190.27,574.655 3201.55,561.915C3204.74,557.933 3208.72,554.749 3214.29,557.137C3219.87,559.526 3221.46,564.303 3221.46,570.674L3221.46,573.062L3216.68,598.542C3208.45,637.56 3199.69,675.779 3194.12,714.795C3186.16,768.94 3190.14,822.291 3204.47,874.844C3209.16,890.632 3216.15,905.048 3225.54,917.727C3168.18,905.926 3109.33,897.371 3051.72,893.157C2917.02,885.062 2788.03,911.47 2663.02,959.246C2575.3,993.486 2507.62,1050.02 2467.01,1135.22C2425.73,1220.55 2425.73,1310.39 2450.28,1400.37C2470.99,1478.4 2510.8,1546.35 2560.17,1610.05C2584.06,1641.11 2609.54,1670.57 2642.98,1691.27C2706.81,1731.22 2774.49,1760.68 2849.34,1767.84C2886.76,1771.82 2925.91,1773.42 2962.54,1767.05C3008.72,1759.08 3050.93,1736.79 3087.56,1706.4C3136.13,1666.59 3163.99,1617.22 3162.4,1553.52C3162.4,1542.37 3166.38,1537.46 3175.14,1532.68C3217.34,1510.39 3257.95,1486.37 3272.28,1441.78C3300.16,1441.78 3325.63,1442.57 3351.12,1440.98C3406.06,1439.39 3459.27,1427.44 3505.45,1394.8C3560,1356.58 3577.52,1291.28 3551.37,1230.11C3539.56,1201.44 3517.4,1185.52 3486.35,1182.33C3423.58,1175.96 3387.74,1218.96 3399.69,1277.08C3402.87,1294.47 3414.02,1304.82 3428.35,1305.62C3446.53,1307.21 3464.05,1296.86 3470.42,1281.07C3475.99,1265.14 3467.23,1245.23 3452.9,1243.64C3449.72,1242.85 3446.53,1239.66 3442.55,1238.07C3445.74,1234.09 3447.33,1228.51 3451.31,1226.92C3467.23,1220.55 3481.57,1226.12 3492.72,1237.27C3529.21,1275.49 3518.99,1328.71 3481.57,1355.78C3434.59,1389.22 3381.37,1397.98 3324.84,1392.41C3313.69,1391.61 3301.75,1389.22 3292.99,1387.63C3291.4,1366.13 3292.99,1347.02 3289.01,1328.71C3284.89,1305.62 3269.63,1294.47 3250.52,1296.06C3227.56,1298.45 3203.01,1317.56 3203.81,1337.47C3204.6,1357.37 3209.38,1376.48 3214.95,1395.59C3225.17,1428.24 3220.53,1444.17 3193.46,1464.87C3166.38,1485.57 3154.44,1483.98 3141.7,1452.13C3126.57,1414.7 3101.09,1384.58 3072.43,1356.84C2993.6,1280.4 2877.21,1274.03 2796.79,1342.51C2763.35,1371.04 2756.98,1408.33 2778.47,1447.35C2790.42,1467.26 2805.55,1484.77 2825.45,1496.85C2886.76,1535.87 2951.39,1563.87 3026.24,1558.3C3036.59,1557.5 3046.94,1558.3 3057.3,1559.09C3067.65,1559.89 3072.43,1564.66 3070.83,1576.61C3066.85,1611.64 3051.72,1640.31 3021.47,1659.42C2947.41,1706.4 2867.66,1713.7 2787.23,1683.31C2648.55,1630.75 2563.35,1527.9 2523.54,1386.97C2513.19,1351.27 2503.63,1313.98 2511.6,1276.42C2518.76,1243.77 2526.73,1210.2 2537.08,1178.35C2553.8,1129.64 2584.06,1091.42 2628.65,1064.35C2668.59,1040.46 2710.79,1021.35 2755.38,1009.41C2843.77,985.523 2933.88,979.949 3024.65,979.153C3104.28,978.356 3182.31,988.708 3260.08,1004.63C3327.89,1018.17 3394.91,1033.3 3462.46,1044.45C3560.8,1061.96 3658.87,1077.09 3757.73,1091.42C3827.14,1101.78 3896.55,1108.94 3966.75,1105.76C4051.16,1102.57 4130.78,1081.87 4204.44,1038.08C4286.61,990.486 4341.78,924.549 4348.47,826.414C4359.64,849.675 4377.02,861.286 4401.37,859.714C4409.34,858.918 4416.5,856.53 4421.28,850.159C4425.26,845.381 4428.45,839.808 4430.04,834.233C4437.21,814.328 4442.78,795.217 4449.15,775.31C4464.28,725.146 4480.2,674.982 4496.93,624.819C4506.48,593.766 4520.81,565.896 4540.72,540.417C4542.31,539.621 4543.11,538.028 4543.9,537.232C4547.89,545.989 4550.27,553.952 4548.68,562.711L4541.52,596.155C4531.96,643.134 4522.4,690.909 4513.65,737.887C4506.48,778.495 4502.5,819.106 4504.09,860.511C4504.89,882.01 4506.48,904.304 4512.05,925.007C4517.63,950.487 4531.16,969.597 4553.46,982.338C4571.77,992.69 4590.88,990.301 4606.01,976.764C4607.61,975.171 4608.4,974.375 4607.61,971.986C4598.85,950.487 4594.86,928.193 4593.27,905.101C4591.68,876.436 4591.68,847.77 4596.46,819.902C4598.85,806.366 4602.03,793.625 4604.42,780.088C4608.4,762.572 4610.79,744.258 4614.77,726.739C4622.73,690.112 4633.08,654.282 4637.86,616.857C4641.05,596.155 4642.64,574.655 4639.45,553.156C4635.47,528.473 4623.53,509.627 4601.23,496.888C4569.38,478.707 4540.72,481.892 4513.65,506.442C4502.5,515.866 4493.74,526.881 4488.17,540.417C4475.43,565.896 4463.48,592.97 4451.54,619.245C4445.17,631.986 4439.6,644.726 4434.02,657.464L4433.23,657.464C4433.23,653.485 4432.43,649.504 4431.63,645.522C4430.04,631.189 4428.45,616.857 4425.26,602.523C4421.28,584.211 4410.13,571.47 4391.82,566.693C4385.45,565.1 4379.08,564.303 4372.71,564.303C4355.99,564.303 4347.23,572.267 4344.04,588.192C4343.25,590.581 4343.25,592.97 4342.45,595.358C4341.65,614.467 4340.06,632.782 4338.47,651.893C4335.72,686.926 4334.75,721.958 4336.07,756.997C4326.65,744.714 4311.41,739.406 4293.08,741.073C4268.27,743.461 4248.23,756.202 4227.52,769.736C4202.84,784.601 4178.42,801.323 4152.28,813.134C4129.19,824.282 4110.08,813.93 4099.73,790.175C4083.01,752.883 4081.41,713.202 4090.97,671.931C4097.34,673.524 4102.91,674.32 4108.48,675.116C4159.44,685.468 4200.59,659.191 4212.26,608.23C4221.02,573.196 4209.21,545.459 4180.02,536.038C4137.15,520.909 4083.8,526.482 4048.76,566.03C4018.51,601.064 4002.58,642.469 3997.81,687.061C3996.66,697.697 3996.16,707.868 3996.3,717.574L3995.95,718.645C3982.55,757.661 3968.21,795.881 3947.51,831.713C3939.55,845.247 3930.79,857.192 3918.05,866.748C3901.33,878.692 3886.2,873.914 3878.23,855.599C3871.07,838.88 3868.68,820.565 3871.07,803.047C3875.85,766.42 3883.01,728.996 3889.38,692.368C3897.35,650.167 3905.31,607.966 3904.51,564.17C3903.72,544.265 3902.12,525.021 3893.36,506.709C3883.81,486.801 3867.88,475.654 3845.59,475.654C3833.64,474.857 3821.7,476.449 3810.42,478.839C3791.31,482.024 3777.77,493.172 3765.83,506.709C3750.7,525.021 3736.37,544.265 3721.24,562.578L3711.68,574.522C3710.09,571.337 3710.09,568.948 3710.09,565.763C3714.07,541.08 3722.03,517.856 3731.59,494.764C3743.53,467.69 3756.28,441.415 3767.42,414.341C3784.94,372.141 3800.07,328.347 3804.05,282.165C3808.03,244.739 3796.09,212.094 3773.79,183.428C3762.65,168.964 3747.52,164.186 3731.59,170.556C3706.11,180.908 3683.02,195.372 3670.28,221.65C3664.7,233.594 3658.34,245.536 3653.43,257.48C3619.98,340.292 3604.85,427.082 3598.48,514.672C3595.08,565.109 3594.59,614.871 3596.5,665.021C3595.65,667.777 3594.89,670.549 3594.24,673.39C3587.87,702.853 3578.31,730.721 3565.57,757.794C3555.22,779.292 3542.35,798.403 3522.44,811.94C3494.57,830.252 3453.83,821.495 3437.91,793.625C3425.17,770.533 3418,745.85 3418,719.573C3418,666.223 3434.72,618.315 3468.16,576.911C3477.72,565.763 3489.8,557.802 3504.92,557.802C3514.48,558.599 3519.26,562.578 3519.26,572.133L3519.26,577.707C3520.85,585.67 3521.65,594.429 3524.83,602.392C3526.43,608.762 3531.2,609.558 3535.98,606.373C3546.33,598.411 3552.83,582.484 3547.13,570.54C3539.96,552.228 3525.63,537.762 3507.31,532.188C3457.02,516.264 3409.24,527.41 3375.8,572.133C3341.56,616.725 3328.82,668.613 3332,723.554C3335.19,772.922 3359.08,809.55 3402.87,832.641L3412.43,838.215C3436.32,850.955 3461.79,858.122 3489,853.344C3530.41,845.381 3559.2,820.699 3578.31,784.07C3587.17,767.774 3594.13,750.691 3600.12,733.241C3601.03,748.081 3602.04,762.928 3603.26,777.568C3605.65,798.269 3612.02,818.176 3623.96,835.694C3631.93,846.84 3641.48,856.396 3655.15,857.192C3674.26,858.784 3691.78,854.803 3708.5,846.044C3710.89,845.247 3712.48,842.861 3713.28,841.268C3716.46,831.713 3719.65,822.954 3718.06,812.603C3715.67,780.753 3711.68,749.698 3712.48,717.849C3714.07,682.016 3718.06,646.982 3730.79,613.54C3745.92,572.93 3771.41,541.08 3811.22,522.632C3818.51,519.449 3824.09,521.041 3825.68,529.003C3827.27,536.303 3828.07,543.469 3827.27,550.636C3823.29,568.152 3819.31,585.67 3814.53,603.985C3802.59,650.167 3794.63,697.941 3789.85,745.717C3787.46,768.013 3785.87,790.307 3788.26,813.399C3791.44,834.102 3796.22,854.803 3808.16,873.118C3827.27,904.171 3868.68,917.707 3902.92,904.967C3924.42,897.007 3940.34,881.877 3954.68,863.562C3974.58,838.083 3988.12,808.621 4000.06,778.364C4001.45,774.741 4002.8,771.111 4004.11,767.478C4018.55,811.335 4053.2,841.849 4110.08,860.112C4153.07,873.781 4191.96,858.52 4228.32,834.631C4245.04,824.282 4261.9,811.672 4279.41,802.251C4285.12,798.403 4294.68,797.606 4301.05,799.995C4304.23,801.454 4304.23,812.469 4305.03,818.708C4305.03,821.097 4304.23,823.486 4303.43,825.872C4287.51,905.101 4241.06,960.042 4170.46,995.875C4096.54,1033.3 4016.12,1049.22 3932.38,1051.61C3829.53,1054.8 3728.27,1039.67 3628.61,1014.98C3513.45,986.679 3398.18,957.049 3282.2,930.318ZM3033.41,1520.74C3004.74,1515.16 2974.49,1511.98 2946.62,1503.22C2914.63,1493.66 2889.15,1472.03 2867.66,1447.35C2854.92,1433.02 2847.75,1415.5 2844.56,1397.18C2841.38,1378.21 2846.95,1366.4 2866.06,1360.82C2921.93,1344.9 2973.69,1349.68 3016.69,1391.61C3046.94,1420.28 3064.46,1457.7 3079.59,1496.05C3085.96,1513.57 3081.98,1518.35 3062.87,1518.35L3034.2,1518.35C3034.2,1519.15 3034.2,1519.94 3033.41,1520.74ZM3253.97,1375.69C3234.6,1370.91 3227.56,1351.8 3237.78,1339.86C3240.3,1336.67 3244.28,1334.28 3247.6,1335.08C3249.99,1335.08 3253.18,1339.86 3253.97,1343.04C3254.77,1353.39 3253.97,1363.74 3253.97,1375.69ZM2270.26,-604.729C2245.21,-618.14 2217.47,-627.589 2186.99,-633.13C2159.12,-637.908 2130.46,-632.334 2102.59,-623.574C1989.52,-585.488 1918.65,-509.977 1892.38,-393.058C1884.42,-360.546 1881.23,-327.899 1884.42,-294.324C1884.42,-291.138 1886.81,-287.157 1889.19,-285.565C1947.32,-252.919 1997.49,-210.585 2045.26,-165.995C2087.46,-126.845 2109.76,-77.479 2119.31,-21.74C2121.7,-8.204 2124.09,6.13 2122.5,19.667C2120.9,43.553 2101.79,60.274 2077.91,61.867C2047.65,63.46 2021.37,53.108 1999.08,33.997C1969.62,7.722 1940.95,-19.352 1917.06,-51.2C1888.4,-90.217 1870.08,-134.012 1855.75,-180.326C1848.58,-204.214 1844.6,-228.899 1839.83,-253.716C1838.23,-261.678 1835.05,-266.456 1827.09,-269.641C1785.68,-286.361 1742.68,-300.694 1698.09,-307.065C1639.97,-315.027 1582.5,-311.842 1527.56,-288.75C1496.51,-275.213 1481.38,-252.123 1479.79,-219.344C1478.19,-189.085 1486.16,-161.218 1498.9,-134.012C1542.69,-44.034 1613.69,18.87 1703.67,61.867C1817.53,116.809 1937.77,155.028 2061.98,178.917C2116.92,189.268 2173.46,195.639 2229.2,203.599C2245.12,205.989 2261.04,206.785 2278.56,208.377C2282.54,196.435 2287.32,184.491 2291.3,173.343C2322.36,96.901 2368.54,31.608 2437.68,-13.778C2495.94,-51.2 2559.51,-75.089 2630.37,-73.496C2652.67,-72.701 2674.96,-67.923 2694.87,-57.571C2736.14,-36.071 2751.27,2.944 2734.55,46.738C2726.59,67.441 2713.85,84.96 2698.72,100.883C2669.39,133.531 2632.76,157.417 2594.54,178.917C2538.94,210.766 2480.81,238.636 2418.57,256.948C2398.66,262.522 2377.96,266.504 2357.39,271.281C2356.6,288.003 2354.21,305.522 2354.21,323.038C2351.02,420.978 2347.04,519.051 2344.65,616.989C2343.86,658.394 2347.04,700.596 2351.02,742.798C2352.62,762.041 2358.19,780.355 2363.76,798.667C2370.13,816.982 2385.13,820.83 2401.05,809.815C2413.79,800.26 2422.55,787.522 2430.51,773.985C2454.4,734.039 2468.87,690.246 2482.4,646.45L2499.12,588.324C2500.72,585.139 2501.51,582.749 2502.31,579.564C2516.64,584.342 2518.24,587.527 2515.85,601.064C2504.7,659.191 2489.57,716.521 2461.57,769.207C2451.22,787.522 2440.07,804.241 2427.33,820.167C2409.81,842.196 2385.13,851.752 2358.19,855.733C2343.06,858.122 2330.32,853.344 2319.17,843.789C2301.66,828.793 2292.1,809.815 2283.34,789.112C2270.6,758.059 2266.62,725.28 2263.43,692.634C2255.47,616.989 2253.88,542.141 2255.47,466.365C2257.06,413.016 2261.04,358.87 2264.23,305.522L2266.62,276.856C2253.88,276.059 2241.14,275.263 2229.2,274.466C2186.99,270.485 2145.59,268.097 2104.18,264.115C1979.17,251.377 1854.95,230.673 1736.31,187.676C1698.89,174.139 1663.85,156.621 1628.82,136.716C1594.45,116.809 1561,95.309 1530.75,69.033C1484.56,28.426 1445.55,-17.759 1424.84,-75.886C1407.33,-126.845 1403.35,-177.939 1423.25,-228.103C1447.14,-288.75 1493.32,-323.786 1555.43,-337.455C1633.6,-354.973 1710.83,-345.417 1786.48,-322.99C1800.81,-318.212 1814.35,-314.231 1829.48,-309.453L1829.48,-343.028C1833.46,-423.318 1864.51,-491.662 1917.86,-551.248C1969.62,-609.243 2035.7,-638.704 2109.76,-651.976C2166.95,-662.991 2223.36,-659.009 2277.5,-638.704C2292.36,-632.831 2306.32,-626.063 2319.42,-618.437C2318.29,-617.665 2317.26,-616.703 2316.31,-615.565C2310.6,-610.868 2307.34,-600.887 2305.84,-587.693C2300.33,-607.011 2292.65,-618.841 2281.97,-616.046C2279.18,-615.318 2276.92,-613.787 2275.13,-611.56C2273.07,-609.925 2271.47,-607.617 2270.26,-604.729ZM4094.15,647.247C4108.48,624.952 4121.23,603.453 4134.76,582.749C4137.15,578.77 4140.34,576.381 4143.52,573.992C4153.07,568.418 4162.63,563.641 4173.65,570.808C4184,577.974 4187.18,589.12 4184.79,601.064C4180.81,620.971 4170.46,637.691 4153.87,649.635C4137.95,661.579 4119.63,661.579 4094.15,647.247ZM3709.3,474.857L3706.91,419.119C3706.11,382.492 3706.91,345.069 3710.89,307.644C3714.87,274.999 3719.65,242.351 3734.78,212.891C3738.76,205.724 3743.53,199.354 3747.52,192.983C3750.7,189.002 3753.89,189.002 3756.28,192.983C3761.05,199.354 3766.63,206.52 3769.01,214.483C3776.18,236.779 3776.18,259.869 3773,282.961C3765.83,347.458 3742.74,406.381 3715.67,464.508C3714.07,467.69 3712.48,470.876 3710.89,474.061L3709.3,474.857ZM2358.85,202.007C2376.37,109.642 2424.14,38.775 2505.49,-9C2531.77,-24.129 2560.3,-32.887 2591.36,-32.09C2606.49,-31.294 2621.62,-28.109 2635.15,-21.74C2663.02,-7.407 2674.17,19.667 2664.61,49.127C2655.86,76.201 2636.74,95.309 2616.04,112.828C2579.41,142.29 2536.55,160.602 2493.55,178.121C2452.01,194.842 2409.81,200.414 2366.95,202.007L2358.85,202.007ZM1878.84,-244.692L1884.42,-243.099C1928.21,-216.025 1972,-188.953 2007.84,-152.325C2042.87,-117.291 2065.96,-75.886 2081.09,-28.905C2083.48,-20.944 2085.07,-11.388 2085.07,-2.629C2085.07,10.111 2075.52,20.462 2061.19,19.667C2052.43,18.87 2042.87,15.685 2035.7,10.908C1998.28,-11.388 1968.82,-42.441 1943.34,-77.479C1909.9,-126.05 1889.19,-179.399 1879.64,-236.729C1878.84,-239.117 1878.84,-240.71 1878.84,-244.692Z" style="fill:white;"/>
        </g>
    </g>
</svg>
